<mxfile host="app.diagrams.net" agent="Mozilla/5.0 (X11; Linux x86_64) AppleWebKit/537.36 (KHTML, like Gecko) Chrome/134.0.0.0 Safari/537.36" version="27.0.8">
  <diagram name="Page-1" id="nYfi3yH3u01awPt-pBlX">
    <mxGraphModel dx="475" dy="262" grid="1" gridSize="10" guides="1" tooltips="1" connect="1" arrows="1" fold="1" page="1" pageScale="1" pageWidth="850" pageHeight="1100" math="0" shadow="0">
      <root>
        <mxCell id="0" />
        <mxCell id="1" parent="0" />
        <mxCell id="XsaXqQfrhSqyZT8JbVa6-2" value="" style="shape=image;verticalLabelPosition=bottom;labelBackgroundColor=default;verticalAlign=top;aspect=fixed;imageAspect=0;image=data:image/png,iVBORw0KGgoAAAANSUhEUgAAAWgAAAFoCAYAAAB65WHVAAAAAXNSR0IArs4c6QAAIABJREFUeF7sfQeYJUW1f3VVd988N8ydsDOzyywsLCywJBGUaAAFUVEEEQUDRvQZefqePiNm/fsU81MU1GdADDwTRowgIqIIC4sL7LIzsxPu3Ln5dqz+z+nbNdtcZqd7bnfv3Lt0fd98G6a7+tSpqlOnTvgdDoUt5EDIgZADIQe6kgNcV1IVEhVyIORAyIGQAygU0OEiCDkQciDkQJdyIBTQXToxIVkhB0IOhBwIBXS4BkIOhBwIOdClHAgFdJdOTEhWyIGQAyEHQgEdroGQAyEHQg50KQdCAd2lExOSFXIg5EDIgVBAh2sg5EDIgZADXcqBUEB36cSEZIUcCDkQciAU0OEaCDkQciDkQJdyIBTQXToxIVkhB0IOhBwIBXS4BkIOhBwIOdClHAgFdJdOTEhWyIGQAyEHQgEdroGQAyEHQg50KQdCAd2lExOSFXIg5EDIgVBAh2sg5EDIgZADXcqBUEB36cSEZIUcCDkQciAU0OEaCDkQciDkQJdyIBTQXToxIVkhB0IOhBwIBXS4BkIOhBwIOdClHAgFdJdOTEhWyIGQAyEHQgEdroGQAyEHQg50KQdCAd2lExOSFXIg5EDIgVBAh2sg5EDIgZADXcqBUEB36cSEZIUcCDkQciAU0OEaCDkQciDkQJdyIBTQXToxIVkhB0IOhBwIBXS4BkIOhBwIOdClHHhMC+hUKtVfrVafiRA6Hn44jkthjCXDMHZRSv+CELoTIfQHhJDSpfMXkhVyoGc5MD4+Hp2enj5JUZTDKaVHI4Q2IYREhFABIbQdIfSvZDJ5U61Wm+3ZQXok/DEpoDOZTKZUKl28uBg+SAhRdF0fRAg9ghccx6kY4z2U0vsIIe/VNO0Wj7wOXw85EHLA4kBfX9/TK5XK6wghR+m6PowQivA8b/5W13VkGIYBe9AwjBpC6G0Ioa89FhWlx5yA7uvr21SpVN6LELqIEMLDYuA4DmGMzR/DMJCmaeZCgf+HH0rpfCQSeef69eu/smPHDjncZSEHQg50xoHx8fHMzMzM5c1m8z8JIf2w/6ARQlA0GjX3m6qqSFEUcy+C0NZ1XTMM43t9fX1XVCqVYmdf7s23HlMCOpvNblhYWLiR47hjkskkV6vVzEWwUuMQRqIgIkVVVA7h/6ZIg9M8bCEHQg6skgObNm2KPPjgg+83DONNIJNB+IIwdmpDQ0NoZmaGIoR+hxB6xqJG3XR650D5/WNKQCeTyQ/UarX/QAjheDyOGo2G4zzyWAANGhnIFOSTQ8ODL5qenv6t44vhAyEHQg48ggP5fP68YrH4GUrpQXBbhQZ7a0UFybrFWrdZjeO416uq+vnHCmsfMwI6lUo9s1qt3kAIEeHkhisULBJ2xdrXhIMGnUwkzefgtNd09ZcjoyMvm5ycnHisLJJwnCEHvHJgYGDg0IWFhS9rmnY67LtIJIKaTWdFmJkfYf/BvtU0rSaK4imKotzllaZeeP8xIaDz+fzI/Pz89zmOOwkWhiRJpmkjmUwiMHM4mTjg96lkClVrVRQRIxrC3KslqXFNL0xwSGPIgW7gwODg4GWzs7NfwRiTwcFBND097Yqs/v5+VCqVTE1bFEVTsUII/dowjPMRQitvXldf6O6HHhMCGmP8WkrppxKJBAEtGE5l5gh00qATsaR50oMTIxaLmUIac/h7Rx695cV33XVXvbunN6Qu5EBXcADsGV/FGF8Gew8ErRvt2U45KFY2mzVEXr1I1/XvdsXoAiTigBfQ4+Pj4zt37vwxz/NHJhIJVC6XTXZmMhnzZHZqIKBlWUY61VF/rh/NF+fhlT2DQ2Onzsw8/KDT++HvQw481jkwOjraPzk5eUssFjsMFCNQkgRBMAWuG0G9bt06tGfPHpONfX19qFKpwF9vyWQyzyi52cQ9PAEHvIBGCH2Y5/k3apoWSafT5oKAaxIsEFgsbqI4BN56FhmmPbpWrzVHRtc9cXJy8u89PPch6SEH9gsHwMRYq9X+JUlSHG6isOfADs1usSsRAc/BXgUlCZrNLCkhhN6AEPqf/TKINfrIAS2gs9nsUQsLC7clk8m43dYMpgoQ1DDxTmE+sUjcFOimY1FVEE/MuEwpl8+eVigU/rpG8xZ+NuRAz3Agl8utLxaL9xBCUszZB39C3LOTBg2mDRDkYBqBv9frdVO4w7uNRmMml8s9rlgsHrAO+wNaQCOErkYIvRbC6jpdzRBmB+YN0KLZ4qKUNnP57EkzMzP/7LTf8L2QA48VDqRSqXy1Wn1IEIQkKEQgYEGTdlKOXPBH53n+Y5qm/aeLZ3vykQNWQEej0XFFUW6mlI57mRmBiOZikhUZRSNRJMlws0IL60aGj5mamtrtpe/w3ZADjwUOjI2Nxaanp+/XNG0MNF8wVzAhbUVleGHD/QihkxBCzg4lL19Zo3cPWAGdTCZfW6vVQIPuWHuGOYkIUdO0EREjpvcZrljUMH52xJbN52/bti0EUVqjhRt+tuc4ABEXzwMbMiSIQdicGxOji1Fq8Xj8wkaj8UMXz/bcIwekgI7FYqPNZvNvCCEAQfLUQEAzx4alPWvJVN8rqtXStZ46Dl8OOfDY4sBlkUjkK4qiEBDMYC6EPyEnwUsDTZxSCtFUj4ObrZe+uvHdA1JAI4RehhD6YjKZ5J0SUZwmhXC86aBgdmiEuNv7MslnFwqFVtxP2EIOhBxw5ABkEs7NzUEm71YWOeU2kmOlzi3IBoUQcrGu6z9wJKTHHjjgBPTY2FhuYmLi14lE4li4Rjl5iZ3mC2zQmq4hggkIaS3Tl37pQmXhG07vhb8PORBy4JEcyGQyry+VSv8di8Uw7EtQfJzCXJ14CFq4ZS75mSRJAKS0MvqZU4dd9vsDTkATQi7Rdf1aURQFuEY5ZQo6zQdo0NSgloDWfjG+8cjLHnro7hmn98LfhxwIOfBIDhxyyCHrH3jgAcB1PtMtWJkTD22gSwDscSZCCAptHDDtgBLQQ0NDiZmZmdsEQTgS8v2npqY8n9AAlgQhdqqmNpPx1BuqjfKXDpjZDwcScmA/cyASibxaVdWrDcMQ3MKNOpE4PDzMsD1+gRB6mtPzvfT7A0pAi6J4saIo1yUSCRGiLdxcodgVyYQUNYwlkH72LoQFwe8kSfrm2NjYyycmJpwhuHppBYS0hhzYjxw4+uijs/feu/1LlNILAHqhWi2b0VEQEw3OeGgs38BtnDRLPEMINaLR6DMkSTpg4IAPKAGNMf5fQRAugYkFoQoT7sbEwSqnsHVqt4tZf68Dlm2hUDhgJn4/7snwUyEHHsGBdDr95HK5+iOEUBwhymBEzdhoaKsJwbOiOMwsQyiTpSjK/0MI/fuBwvIDRkD39/cfUS6Xb9M0LQWTsxobF8OcZYvDrklTSg1RFL+6YcOGK/Z3uStweCKEYlCeTRCE2s6dOw/IYPwDZTP1yjhGRkbioiiKqqqSdDotb9u2bb/CdkLiSrG48AVJki+jVDMVKQbcz5Qj9n9OTkQmoK3SWHADXqCUbkUIHRDp3weMgAZQpMUrzlsFQVgak5srErtW2YUz/J3VKNQ0Terv7z9zfn7+tv2xAfP5/GGNmvQiWZZOpQY9DCGUNenhsEYN4+50X/qXyb749ycmJh4TgOX7g+ePhW9s3LjxoHq1etlcoXA6QuhInvAxTdcMTEiR47h74/H4LwRB+P78/Pzk/uBHKpU6pVZr/BohGmF7EIQ0E9SgNEFzEtAs2QX+hD0ryzIUOYSSWp/eH+MI+hsHhIDO5XJjpVLpH5TSHNOcwXYMAtrJxLEvG7TFeINS+k2E0GVw8wpyMkCrkCT1RfOFuasgwSYiRjig3QSIadQRhzhWdsvgEDeZSiW/HcXRz8+UZ0LI0yAnpsf7HhwcHKKUvqZYmH8hxvhgSik2KwlRHcVjcVRvNpivRscYT/b39185NzcXOM4y1CfcsePBL3Cc8RKmDFnVvF0JZvu0wF6HhBfYKyDgVVV9sK+v78QDocDsASGg4/H4sxqNxvcwxrzd4eAmzI5V8mZmDfZv6ySXUqnUk6vV6q1B7tODswenJyuTH1F0FRJsBFa9Bb4J8dfgTAGNAlJkVU1lMdkGweT+SEy8uF6vh7CnQU5Qj/Y9MDCwCYRtJBLZqqsaBqEM6ymbzZprCYQaR1rlp+DvljIji6L46cVn3jMzMxNoQYp4vO/ERqMChWBjdjMH/N0NFCmbFqCfwZGCwgWmaCguq2nar3p06pbIPhAENM/z/Pc1TXsmaM8QAN9J+M4+HIW/GR0dPS/IyI0zzzyTv+3Pt12lqfqVlFIePNJm5qKutzYQx5lx2NDy/Xnz/xdKrYxWCP9TNPnB4eHhZ01PT9/T64sxpN8/DmzcuHHzQw89dCNCaDPrFYpUYMSZ6wdz2DQJqLpm/snWHYAXKYqiLeoGcJODn8ASP7Zs2SLee++93zQM4wJmS2YVVxiIkpOJg5lH7Ah51kHzLYTQJf5xdG166nkB3d/ff/j8/DzgMicAkB8qpoCgBuHmBtKQ2bpYWB3TpAkh0xzHXaWq6ueCnBqMhFdznPERKBZhX2QglDPpjGmDg5BB+BM0IGgA3GRGqkACDW8Cn/96w4YNFz788MMHHBZBkLw/UPu2KphcRwh5Bivvxur5wYYHcxlomrA/hIjYupmpqimkYZ1Z5oKaLMtvCRoQXxTFFyqK8lFCyAgIVtgDttqDrqp+A80sYssG6F+KxWJHNZvN/WJTD2ot9byAxhh/lRDyYlh3rEIK04Zh4pxOYGDs0NAQmp2dNZ9lpbAIIbeA9hyk0BsYGBiem5sDTOl8pxNsLUxNEIRXqKoaAjh1ysgD6L1YLPYGVVX/n6ZprcDizttcJpN5fKlU2tl5Fyu/uWnTpoEdO3aAzfuMkZERM7kMGhSLnZ83y8ut2BiQGXMugoCHG7RhGA1d1z+yaHN/n1Mf3fz7nhbQFu7GHwghW4DJzCFoj6d0w/wl7cLCBiCE6JFI5IpGoxFoOZ10Ov2OcrkM10hP8wBOEl3Xv7HoHAFnZmBXUje8DJ9ZWw5AIsjdd9/9jWg0eq5XHBprLb0LIfT+IEcVjUZfKcvy5wghBJQrVrPQTRRW+16H95nQ1nX9Nwihs4J28AfJG0+CIUjC3PSdTqcfVy6Xf8NxnBn7bEfJgn+zU3WlvlgUBzyTSqVME4lhGH8dHx+/cOfOnYFpDsPDw+PT09MAiWqG0XXabJi6O7PZ7BkLCwsPd9pX+F7vc2BgYOC4hfniTRrVPUPtWtwopdPpE8rlcmDRQiMjIxumpqZujEajx4KyZMeLZs6/fc0MM1Ha978tg7gqiuJJiqLc26sz29MCelG4fQoh9G92DXS15g1muwLhbILxU2rkcrmPF4vFtwY5qYIgfEJVVYjX9NQY/aIoKtFo9NmVSuUmTx2GL/c0Bwb6+19SKpW/rOoaYY43LwOyNNTPUUqhdFxgbRGe4YP1et0sXcXsyHZb9EofXk5IW8+Ddx3yI94RGOEBd9yzAnrz5s2p7du3P8Bx3ED76Wl3+DnxDxaBGReq6+bViuM4aXR09IyJiYnAULEAG7dQKNwBSrsbG/lKYwDaLc0fPIhwWH3eaczh7w9oDryDQ+iqVDLFgcKhWxFAnY7YCmGrZ7PZJy4sLASWHJXNZk+t1Wq/VlVVBGclS1pxY+aAsS2nmFmC+z7DMI7odPxr/V7PCuhkMnlko9H4q2EY0XYmrkZAs3dBUIOTEWN8Y39//wuDjAGNxWKflSTpilwu58oRstIiAQ0afhRF0dPp9GvL5fIX13pR7Y/vDwwMJJvNZkxV1YxhGBHDMOKGqopg6eIEQYGDluO4hiiKcEVvBBkquT/G6/Yb6VTqPyrV6gdj0RjXlJqeHRLgcLNyAz6rqurr3NKx2ucymUxGluWvybL8TPjmamsVtgtoBt+g63otGo0eLUlSYObK1Y51Nc/3rIDmef5di1rvewCngp2gywlqJzs0C5AHAS3LsiaK4gsURblhNUxczbO5XO7IWq32Z0VRkqt5b6VnraxJRdf15yCEfupXv93SD8TLTk9PD5bL5ZMwxqeoqnoiQugQQkjc0Klg1Z1sRZC1GjhK4YcayFAXwXPqhJAdmCN/VDTl96lU6o5qtVrsZefRvuYmKggvk1X1SwQTMzFlnx5jO6dWmGiWpQdIcclk8qRarXZ3UOsiFos9r9lsQvwyD99wU7PQbsaxmzrgfetmrCeTyTfWarXPBEV3kP32pIDO5/OpQqFwH8dxI/syEdiwNFbkH0wqnNggyOG0zWQyR5VKpV1BMZ0Q8iVd118O4XzVatUxFd2JDpudrtDX1/eESqWyw+mdXvj92NjYpqmpqYsNwzjFMIxDeZ5fp2kaaMjg6edYvKzcbNW0a9+cbF1AFibE9UJVHEto6xExIsmKPIcQ+qeB0E/z+fyPCoVCK76rx1smmXlSpVb+qYGMKGQNalbs/KOG5VJA20xoIPCuo5S+NKhIoeHh4YG5ubm/67o+Ys8OXGlK2hEr2e2ZadTQT7PZhFDW4xFC5iLopdaTAjohilsbivLniBiJSYrsid/AgLHRMTQxOYF4Qj6v6voVnjpc4eWRkZHjpqamfp/NZpMLC6vPKYHNYgeRYUk1FrTqH3VdPy0o2vdHvwcffHB69+7dL4ADjFJ6BMjh5UxYftLC83wJTFscx91GCIHY4V/3smZthZ7eijE+jB1SdhgDOxiR0+0S+MwEoOUsbEYikTObzWZg/hme5z+padobBgYG0NwcnKHemnVDrguC8HhFUbZ5623/v92TAjoqCC+mBvqKYRgYUlW9NGBAMpEEm5dqcOj5iqIEVniyP5v9wPzCwtvh2gjhQ24wB9qLDrSjfIGGWK/XNULIy3Vdv84LL9bq3Xw+P1KpVF6DELpcUZQBQggPnnwIedwfzXYLgeKjU4ZhfDkSiVzXbDZ7ErIyk8m8qVQqfUwQBNKevAVCmR30rEjFSjxmmihbhzzPv3fRPvyeoOYlHo+f32g0rk8mk4J589G87W8wk8CBq6rqixbT3sF80lOtJwV0MpH4dr1efz5w2mtWRjwaQ+BMQQjd15/PPzmoat2jo6NjU5OTvxYjkcMgYsTtwlsOdrE9rEgQhIcHBwePn5ycdE696qLlCdpeoVB4syRJz8UYbwakNTi0WIUMlqYcNMnwTYAHAJMTtEX/BtU0bQ/P89ePjo5+bNeuXT1VwT2Xy/UVi8W/chx3qInlQulSlAP7exso2D5ZbLfxgilQ07QHR0ZGzpyamtodxLyMjY2NTk5O/hRjvNUJidLN9xn9hJBr4Gbm5p1ueqbnBDSkRxfm5m7hELfR9PZq4APqvAF4DJyyuq79t0bpmzvvaeU3c+nclQvl4kcJz5sp6dDcxKm221bZe+bhZBiw+QAm8t8opT0TXgdOvwf+9cBLDYTerlNtDAQzCGXQZEFIsqs5jN2PTbrSzFhCxxRgsA5AUEN4mpXNZqiqCkUS3j0yMnLN1NRUI6j14Xe/giC8EnBkeJ4nTCjDN+zZtm5MHCwzj2neuq4b0Wj0bc1m82N+02zr74ORSOQ/YZ/4Mf+WmWZnJpM5rlQq9VTRi54T0CbQd7V6M094s2o39ahDWxq0KkYiF8iyDGV4fG+HjYzkd0ztuVkQhKPAaQN0g0CCK5xTHDS7YtqJYtdN2DQ8zxdGRkYOCxIzxE+G9PevO6JUnPtiNBo9udFsCAaipmCGzdguMNw6irzQZ/+G/cCE/2c3HZ7ndV3XHxAE4UJFUQKLBfYyjvZ3LcCkOzHG6xmYEBPQzCbttPZYnwBPCuYmllYNWvTw8PDJ09PT3o3Eyww6m82etrCw8EuMccTNIbIS31gkCMdximEYJyCEAotC8XP+WF89J6D7ksn31Gr1d7N8+316qV1yi3AYUOHmBwYHT5qdnX3A5WuremxgYODcwtwcQD/yHMZLKHtuNGj4kL3iBPzbFucNySmvXwT4DxRxb1WD3cfDAKu67e5tL58rFK4SeCEPuNbpvjRqSPWlmFcYJ9ieGbqaH9910wdsYhbvC98GwQX/Bj4DPaB0WRC2ZYzx24477riv3HHHHd6ubm4I8/7MCxFCVy/+5IC39huJ21wBe+kptl4xxmomk3lmsVj8uXcSH93Dhg0bsrOzs3+RJGmTH/1bPh9jsRzWGyilPVVppacENFQdmZyYAC33KdFIFEmy5FF/hpgtU0D/3+DQ0CVBJadwiLtBFIQLQBDUGvUlJ41bG2s7IIwNwWv7yMjIqVNTUwU/FnJQfYyMjOQLhcJHFEW5VOQjAjMnmJgLSDcFB2wiBu7DxusGLtYrze03GWbysPcLZg/4f7jxWFjJPxoaGnrLzMzMQ16/H+T7sF8mJiZ+ghB6EnMMMpNBOwrcSnTADYchQzKsdcMwvkspvSgo+gkhn6eUvtqtlr8vOthasxJfgBfnBUVzEP32lICGChHzc4XfLsYSj8ICkxXZs4DmEKIE46s0SgPxTB955JGbtt1zD1Q8SSTiCVNAw/XZLSA5TLpdQLO4bY7jSpTSazRNuzKIheFXn8lk8vRarQaQj6ebYGUGNoUxlPGCOF0hwpsRLTBGK9xtqcJHe4yrXzQt1087oiH8G4QZO0TtuBCW9nknIeRDuq4HXh7K47gBU+Y/MMYmKJcdltP+b6dvsPFbUUPweGN4ePjI6enpoDL0XsNx3KcNw/AEmWqfN0JIWRTFI3sJI7qnBDQh5HmGTr+VTqd5dg12skG3X9HaFyWPiTyQyz5xT6EAyHK+t6govkfX6TshJNAMa2rjuJOGwBYYXLXBeWUT2IV0On1IsVis+E60Tx0mEokX1Ot1ALQy8VIOwAZOQwD4ATNCVzZIoS6Xy7cwPArQgO2xzU4p1XYzHIMVsHAyFIzxhzVNe3cQA89ms0eXSqW/EEKirFYhuwVYzvElU5/T9+E9sKPPz8+DWQqybUGT7onWUwI6Ho2/oyk1rkr3pblypWyW7XECg7FrYe0ha+a/DePB0bGxEycmJiD119e2ZcuW5L3btv2MQ9ypS1dMgy5dF9tjnJf7OLzHxsCu/FYYGGD0BrI5/GDCyMjI+VNTU1/yUozADzqC7mMxoqEpSdIrEULfCPpbnfYvCMLlqqp+IRqN8iCQ2T5wEyHRnkrdFp73hy1btpy7bdu2Wqe07es9K+HmNozxJntyDQsbhPfc7B9msmIFACKRyFtlWQ4yAsVXVvSUgOYQukEUxAsUVTGvxyZ2bCuGeZ+t3RHHJnUpAB9x1+g0mPjIjWMbt+6ceAiyriI8MeEFzAPFvuCcNGhbHKdpB7UiCxr5fP64QqFwv6+rwafOcun8K4rlwsd5nu9zG+/t06fXpJt4PC4rivJ2TdM+sSYEOHy0r68vV6lU/iYIwkHMlg6vuEmUYgLZHvpoczCW0+n0k8vlciC3T0LIp3VdB5hTyO5fGqUd990pyoPBOMBz1m302wihF3TjPC1HU88IaLiq1Wu1W5GBDrfQ21peaQc4xfZTtk2L1gkhlweVgTfQ3/+O+fni++2Li9HLDginBQbPgd0PTDp9fX1mRAFCCMCcLuzGRTY2MnbJnj3TX9ANLQX0Vipda4HxhX3gQIS54XleppS+mVLarRE1n0UIXcFKugFELUvMWYkR9jBPtlZZVBHEHi6GIL5T07QP+cLMtk4IIefpuv4DjuP45W6/zG/hRD+L0AH6NU273zCMxyGEWllJXd56RkAPDQ0dPDsz8w/IzAbTBhRMBa3Ubao3m+C28CI5kUicXK/XwYnnd8MC4X+LEDrtESm1+JGagJMGDUQxAHMQBpqmdS0wf64v9/SFSgnSaTMQQgdmKIhzPpAbaGXwU6vVwNEpiaL4SkmSvt5tY04kEmcpivJjXddFWI82Z9+KpMJ+ac86tAlo0MJv03X9CT4k9T6Kjng8vq7RaNzPcVyyXUAzk6HTDW2ZtPaGBT8aWIUYP+e+ZwQ0QuiciCD+H8QSg4kDwuyA+fWmc3IX0wJYgD4w0AobenDTpk0n79ixw/eA+yOOOOKg++699x7M4YT5LWSYNnOOtACPLPQ8x7lkiRQs/RkQ2PL5/CmFQqGrNABAn5ucmPoNwWQ9hBNCCCRUH5eUlU1Qjgzo8geYCYrdFjiOqyeTybOq1eqt3US6hQD5Y4imSafTZuKJGzjP5TTotnE1crnc4cVi0ffU7xNOOEG44447buc47hi2Z+FPFzQtkci0Z7C9w14yDENTFOUchNCvuml+9kVLzwjoeDT67qYkvQeEHIRpQWs0G45hdnbhbEf1sgT0TwzDeFYQ6GWHHHTQcx7cteu7mMOECWgodw8C2nZAOGYSsoQJU+hJEo1EIm9sNptdFWwPiQW7H568CSHj8alkytQmzbhmEzB+Hxq0S7jLXthEIKThdgPzDCGDuq7vGhwcfFK3xUkLgnApQuirkP7tJouVCUM2B0yLbTPLqalU6qJqtfrDgObqqxzHAd3mPoLWnhfg9F1QbpjtHVL4RVEMFPDJiZ7V/L5nBDSH0A94wp8PzK7WqmggP4DmCnOOAppNJgu0B+ZYWVUgOT4D0IarYZjbZyOC8ClV1V5vd1K09OhWY1dHJ08606AtO3QjlUod022Yz7lM/6cWSguvE3gBA79BW4GRxmNxVG/uw8F/gAhoGC+sSQiBhL+DuQOEXzwe//LIyMjrduzY4Q0P1+2Cc/EcoAYWCoV78vl8plAomIcK2M9XananOqxl2Ef2ZBczH0GWwb4dSLUVjDHEcf+nYRhQOcfkMTO5OO0dNi52Y4A/rfDcnklY6QkBnU6ns+Vy+ZeiKJ7A7H3MLuu0LgEMCZqZAWUBKwG8aK1e07K53HlBpKsCrvFDDz74R8zho5ycmI7049aNwdLMAKv47CA0fic69vV7nuf/3TCMtxiGMdQevuUmDAqmh/AY6aqJK/IIcBwT2S4SXwLct/seAIAfTCiygwkFkoMgKQb8FfCOeYvhWj8goJrgwqNNAAAgAElEQVSyYgIjwbehPdqmubINvd02ytbaYn3IeXAYUkrf1Slvg3iPYOE7yDAuYhmBkMnppbXK2HDbh0fWBZLROjQ0dPLMzMzv4vG4yA4TlhvgBioB6GNzD2ZRmF9N1/48kEicP1uvz3gZ+/54tycE9PDw8Pj09PQfAFsfbH1whW4h0DnDdoKAZnorbGiYVLh6c4irr183fOKuPXt8L8m+fv36QyZ274bwupxXOFSbhtZ1qHWLCG/r9+zZA2aio5dzJrlZwByxbjQGNgWlPbHIvO1wvOkQjkVb11RocINimw58rpaQBKwFgAk0rOwz80oM7zJYgGwmaz4L6wd+Bwe2gbDZb7tg3iuwFcdhrBAp9NDIyMg5U1NT2x072U8PRITIvymq+slYNIbhpqNRb5AiloCuDeaGTpouTvsOiA97affu3bcjhLKgqACv7ZAATlFQPCbm/DLAKAta+OFEMnlOrVbznV6/p7EnBPRinb3HL+Jv/EEURdHcWC07kqvCkmyAoH0xEBwQ7KIg/GNgeOhJQaDAjY+NnTm5Z/qXhmHwXsGcbGhrC6OjoydPTk52TewzRugLFKFXgFmwUwHNknBgE8Gha0e1A7NOtbLXRAImE/A7IIQUnvBTmq4+wCEDcEjmMOaLBBOI6TN0qvdRquUQQv0G4rIImVWdx8yLlKVJQydwYBscNm8nQD8IANPxXK+b6wvWmWE4a5jL+Tkseymcz19DCL3E743baX/r1q07fnrPzC+ANyuaoFx+QCCm8NP7konzipXKTS5fc/3Y+Ph4ZnJy8ibDME5iL8EaaT/I99WhhbVj/pod1AghlSD+XA1pXe8o7BUBfSkh5Ku6DmHLe09EpzTVlgZm2QVlydS6YDOB5sQh/L8UUaiy4HsbGxl77+TUxLsEXvCMV20Lh/rV+Pj4M3fu3NkqwrfGbXh4+PGz0zO/QZhLMFLsIYxuwgfZezZISPMQtRUqRSIfMYVlvVEHVW8Ph/APYpHIz/piffcl8olpJxsvYE/PzMwMNJvNx1FdP0+RlfMMZAwk4gnSAmtq4UDDD7tCs6tzazzuBTSMpz2hg1JaX7du3WlTU1N3rvGUmZ8H4KqZqZnvGQidDmbCSs1b1ZqoaWaSUSIef1et0bgqiDFijL9EKX25aZJqNpfWCBygTnZoEHCwD+2+EYEXDI5Db5JVFWAIurr1ioD+OMdxb45EIhwIZXatWe5q2s5tNkEwkWYBSakJmpMhKfI7F+fuAwHMDomJkRs1XX8GbHCvBQWsmFNDEIR3S5IUyAZYLQ/Gx8eju3bu/A5C6FkAn8rackLZjaBmThzzQCXE3ICwoWC+JElSdV2/PZlMX53PZ3+3c+fO6dXSa38eKnbM7Jl5qqarb+AJv1WjhmkKYQc/aNMsIqN1lXaO47aHfTFnNHNmWQBQ/zc6OnrxxMREV8QcJmKpDyuK/DawyXuNUwcTAoxV1dSfGAidH1Bh1tcKgnC1qqoYDmtWgAAEtFMDDd/E8kAGEoVWzDrMK6X6FylCr3Z6f61/3xMCWhTFnyiKcq4tFthVNRJgLgyQXY1hgqwabXpEjL6gqTR9RyI77LDD8g/seOA2SvWD/dCgLXxklVL6DITQL9d6wcD389n8efMLhRv6c/2RQnH+UZgIq4lTtcfiwoELQhlMDIQQQ9f1GYzxezdv3nzjvffe62vZqY2Dg0MPzc6+iBDhvyCxBjYxZNfBt21pwY4C2p4KvZwtGnwm5XK5mc/nzy0UCpC41AWNfzrh0I9EUeSbsnMewUoEMwHCIW5ycHjouCBA/HmefwqlFMwcPIOldZ0JaSMe9qOpNKkKikXjv2pIjbO6YDJWJKEXBDSoaP8URXELA3oBQQ3XUTdwlBFBNCcEGsTogoNpMeV1dnRs7JkTExO+Vye2HIT/FHghZtrLPRa1BWIFQSgODQ2dNDExsWOtF5SFyX2jwAtnmfZiZDyi0jjQx7K3GOrYSjTb55BpzwAGpSjKzzOZzDtKpVKgpgGo9qyq2rswJudA6S2WCg00t25oKzsJ28GEWBKSfcwwrsWai9/aunXri7sB6P+QkUPWPzzz8F81XR/0qkGDCdGaQynZlzqyXC77nqE3MjKyeWpq6jdgoWHzw9aYGxMHOJgt56CpRcMcyYp8/+jY2LHdcqvZ1x7pBQGdjMfjDzSbzUGWaMJOUTdhNmwBgd3ZCq+Djbctk82ePzc39y+/Bd769etPm9i9+zepZIqHw8BrFIe1+O8eGxs7IwjEvdWOHxyguyYmbhJ4wSxHBGGE9nRaJqCZcHZj4mA2ZysuFyIxfj40NPSymZmZ2dXS18nzrSKrpS8DFCXGmIdx7dXsncPs2Bit+HpWK/IRTmnDMBqDg4NPnZ2dXfMMw6GhocTsTOFXPCEnq7pzlMpKPAUTh4XvraUzmaeUSqXfdzIHK70DYE/VavU3kFFomb2WsnGdvmWP4gLhzDJ4CSHzUT12eBVVu7rYRdcLaMjHbzabtxqGcRDTsGDzgK3QTaoqLCCdthw9cMVp2QjRv8YHx0/ZMe1/inc8Gn9vU2q8qxWj672ggKVBf1dV1cCqVzgtcvvvMULfFMWIiQbmx/ggjI6BQelU1wxErx0aGnpjUNVt9jVWsKvv3PnwxzHGrwIhDaaJYhEQaJ1t0E78AzNVs9kEk833ugXkimDhGkr1l3nVoJmPR9VUIxaNvrMhSUH4deAWfZ8gCIfanblualayKA4QzmCzBmUC5AGHuAkxGjlNkqSgCg44LQtXv+96AR2JRA6VZfkWMH2y0BqYJDB3uBHQLFAdBDNoaJaJ489nbNly1m8DwLHFCF2HEHcZK4TqNcwOAgMWr9rv0TQNqpKsaYO45/m5wp8UVVlv4opwHPI6vng0weLS9Vgs/qmhdQPve/DBB72FFnTIpRNOOCH+j3/cdZWm6ZBdSlrJUN7Q+OwmnEVc5t2JROL0Uqm05kIBI/wfHIc/qBuaJxkATjhme9d17ctW2GWHM7Dia78DHBE4zMHJB+YnN1FcTEED5Qxu0QBTbClsJUEUT1cU5Z9BEOtXn54mxy8iVrxC8fypmqZBcco4i9pggtlNFIfItxJaIGGBnaIIGddThC4BeGY/xwD22Zk90z/VdO1MFm/r1cQBNMZisQubzeYP/KS1k77y2fwlpfLC1yDWEez6LTAkb5nM/dk8Ki6Apmr8dmR05HmTk5PzndDm1zstoPjJ72JMnmyGoVVMeNeOmx35jed5RRTFCxqNBoAWrWmLRCLPUmT1BgNRwQshIEBYhifhyC8G1w09Z2pqypvncRmCMMbXUkpfzPa+na8r0Q8HCESrLCOgVYLQuVqXgyZ1vYBevNpcDNUqOI4zY6DBMcUEsxsBDQNk0RuWx91AiPukRrU3e1mYy707Pj4+vGvnzltFQRy3HBGebdBgSchkMieVSiWAWl3LBpDpEPVyAThbW6FKLRu0l8ZjATSaBzPZ9LMXFhbu9tKXX++m0+mD6/XmT3RdP9xNHPRK32XaJVurGOOvUEov94vWTvtJJrNHqXLzj7IqpTvtA95jJg7T9NBs3D+2fv2Tdu/ePeWlz+XexRi/a3G9vSeVSnGAY+0mQAD6YRo0U5hAgzbhf5GhGwjBPFznN61+9tcLAhpqvn1gMdwKJPQSboJdUK/EEJggBn8JOAwGMmg8Fntbvdn8uJ+MhL4szGoQMjH4lmkrtyJIOv2WIAjlTCZz+NzcnKf4306/z95Lp9Mb5ab0D4xxiiUI2MGfOu2fQ1gWxMgLFGXtbwj2McRisYuaTfnrCFGx07Gx9+y2UkLI7MDAwFFBhKOths7+/v7RykLlVpWq61fzXvuzLFHF+v/qcP+6k/bM+w+fgFrC9As8z/Nu9z7QxGzQdgFtQQBoRqtk3Ae9jD/od7teQGOMP2sYxhUslRgmx37NcRNmA5Njom4pMmQT6qIQeVldqkMKrq9tdHDwmOm5wl8SiYQIiGYtrAfP7a5NmzY93iljzvNXHDpIJ9MXVmplAOMnzP5sIpt51KAFLP5zYDh/chDXYi88GRgYSC4slH+nacrxXvphaIbAK8t3IqdSKcCLBmyZNWsjIyPxPVMzvzGQvpRC3QkxTIM2y881Gkq2P3fq/Pw8YGf42gghz+Y47tuapkVZsgorJrvSh1gUBzNxwNqFZhiGipABNvMrfCXU5866XkBb5Z0uYMkP9hAoN2F2Ni8zy8XXc5nM8+ZLJd/xa/vT/U9eKBd/LgiCWVTAj0QVhND3wazg87yvujuBkM/oOn0tZP2Vyi27rJuivQ4fknnEn9etmAjRaPQMSZJ+BjeiVTPMeoFdxW1atJHL5a4qFotrXvAXI3I9Rbqn0mn2KCnIIozF489uNBo/7ZRf+3ovmUyeWavVbsQY98EzZlawmem5cmMCjkVVMUweM5YLoR8bCAEefNe2XhDQkD33VOAgs+e1YzesxF1wEjKYUXiOYKIm+1JPK5VKN/s9K7lc7sKFYvHbmXQGgxBbTUmuFWiBGndQOHPNGsQJV8rlX+m6fiLEksPGAE+4VwHNIbR7cGjoiP0dUrcKRhKEECCeHbaKdx71KMNdzmazaGFhAX7/u7GxsXPWOkkCI/xJiqgnPHSmoVpARDQejb6kHkDJL0go4jjup4qi9JvKgQUx4IRmx+CGWQEJ5tC0JulWA6FTfYml9LJAVni36wU0xvxdHMcdDWNoxTDrjlVI2sfLBLqlxchjY2MnTkxMBBFe81FRFK9UFIVjyGxuEjXs9LZNCBzz/7EYwfLRgObfVbdgfy6XyzdxHHcYS7dnTq99js8aCDhoIRyKCSfI7ITNJcmSziH8Zoro1a6IWLuHXs5j8gU4282qHIps4jkwVEU3ZLHwUJYBu1hVensulzsriDJRbuixPfNGhBBUIu9YDtjxsGF/qar6/yilV66SDsfHc7ncllKpcqdhGCai5V4noXMi0XKdm0lvCO00EDocHPGOBKzRAx1PzP6iF2P+PoTQZvY9SiHRbHWNCRMLorQxOjp6XECwnZ8XBOHVDADejY2sfSRtE0J5jF+jUvo/qxuxv0/HYrEnNpvNH3EclwMeukoSsgZi2v4seFgTl1enZr1CAZN6KpF53Hx1Hua3a1s+n98838LQGIaxEKEFvuM2Dh8GxoSJDaVvPpFIPDWgYsWueUkIuZTq+rUGQnsRr1y/3XrQLqCt2P//oZS+apXdOD4+MDBwaKFQhEgmE0Jhr3mzcwG96HjcPYJGDp9C/ocFOg7I5QPdLqB5jiOAf7xxL5Tl6kOX7ZjDmqZVDzrooGN27dr1kEsereaxr/E8f+lqvMwOAlqPirGLm0rzhtUQ4fezhJAX6Lr+dYwxgXkw8bSd8LjZyjJa9kIQ0nAdjVlVLQxd/8Pw2OjT1vqa78QrKFz6tzvu+E4qmXoOmHYAW4UlITldr1nf9rBQeIdSqomi+HxFUcC/sGYtEomcp8jyDw2EwJTTUbMLaMsh+h1KKYTG+trS6aGNlUrh74saf5+PAnoih3JHFlHRWzaSryN9ZGfdLqDjCOHtHMcB2Lpl2lh93C07ba0/SyMjI8dMTU09HABff4AxPh82ods4TQcBrfUlEueU6/W1BhYHaNb3Lhbb5Fog9oYpdM3ag1Yhz0fx0lpZS04ZuFJCmalozATdjwuRT9ZV+U0BzIHvXUZF8b9kRXlfLBrjwMTB0O7goHKKIgJimInNBkEKDipA0VvTEK9UKnVarVq92S8BbSlRANoPVbN9bblcbn2xWLpjMaprgMGNtmTCygobO0DaibHW7VQf6ju6giqQKdWVrdsFdAohDBr08F4ox9UL6DYYyOLo6Ogxk5OTEwHMyK85jnvyI0/41X2lbUKUXF/fqfOViu9hS6ujCn0FY/xShoHChI4F3bp8VzYNGt6DBsI9lUgCxrOh69prKEJfXCUda/X4czmErk8lU6TSQkNEgNVRqbhTvNrSvRnkLYR5vnitBgTfTafTJ1TK5T8bCLVqiXXQ7ALQEnp/Qi3Hm68tn8+vKxSKty+C94+ym0tL4VrZ5OkgoKeTyeQxtVptv4BydcKQLhfQ2TRCZRDQg3sHt1dAt+PvLscA+xUMfs9xXGFsbOyYILKdEEKAVHay9Z1VOzPN9x45CDmTzT6uCzLswEH4NIaB0s7TZReeTUAzAQV/QuqtoihyMh57biWAcKxONoHTO3EhfqKkNv8kCIIAOWhw0LgB6rH3y3hmq/L+C8Mwnub07SB/39/ff0Rxfv7vBkIdJ+OwcTGYVY7j/m4YxnF+0z04ODg0O1v482LK9zgT0K11tTJov4OAno3H48c1Gg3fMx/9Gn+XC+h0FqEqFNwc2CsUWlcaV0LCCsdh13BLs51Zv379cbt27fIVAN6iCbzMx7qlbdkD5ZH/KfXn88cUCoW1rkP4x8ViAaewqtsmIpju4AuwOQmZpm2aRWTTYV4YHR5+xsT0tO943H5tDHs/6XT6kGq5cruBjGwkGjWrjMMcs8rYbr7JkBj3+lKMPxuG8QQ37wb1zODg4CFzs7P3gJug02+wtc5gGDDG91BKj+q0v329B6W6pqambyGEHMrWng8CuhBDseObqLnbb3r96q/LBTTqRwiDlz+/nIBmp/ZKzGAbA56Bk3cRTnLPhg0bjvdaOmm5b2KM/0Ep3WqvsrHaiWqbECk/MHD03NzcmgL1cxx3CwgTBlBjljhS1UdVUnnEWG02aGaTN1P1FQVi0SeH1g2fNzk5CU6frm9QVX5uZvZWatBhENCsyKwbJyG7PcDtw3IQspvVXQihY9Zy8ENDQxtnZ2bu9SKgmbJkw8m5T9M0KNLraxsdHe2fnNzzJ0LIZiag3RRUcNCgi1EUPUFC3Qs52uUCOtWPUP0RArodn9cpztiebWhtln+Nj4+fHoSARgjdgRA63m0QvRsNOj8wsDWIwgKr3D13chx3bCcmDsAksQMGQZgdpbQ4MjjwpInZWRBSXd8ymcx4uVT6vcAL66HGJDuogHDHm4QtwapN64abIcTgrlmDg2dmevo+rwKa3ayseX7QMIxD/B5UKpXqr9cbtyPEbYSDbm/Ioqcwu4VoNHqCJElBRHT5woIuF9AoB1Ecdg3ai4C2hPWO8fHx03pFQPfn88cWCgXgwVq2WzmOO5ld6V2ZcGw2aIadYGpZimkznB8bHjp71549f1vLQbn9tiXIbsUcHuYIXvItuBHO8A17lXBbgg/E9B7rloYgnrPAvbZ5FdDslmDdHP9lGIanzMvlxhoK6CBWgMc+0+l0tlx+pA16tQLa7ki0NsrOgw466IlB2KAXw4tuQwhBSuqS1uik4bezqN1JmM3lji8Wi5BuvJbtlxjjp7IYaDa+Fa/41kAg3R0a2KFB66GaDqn3tWwq9bRitQqFGLq+RSKRTYos/5UnfDoSi6JarWbS7NZRyDIJ4R32d8Mw/mgYxmlrOfiBgYFNhbk5sEF37CRkY4LDytprgOZoZv762VKpkXy9PnM7x+Fx+NZe3nvWoI/v5qoq3a5BZywNenCvLemRE+IkAO3CxFpAE2NjYydPTExM+rmArL4g4+wM+LsrLXMZAtrD7NItLOi1ttVev+j8ubCVat+KZ3a0/9s0aEhxBps1CGn4b4KJnuvLXDRbml/TRA2389/f13diuVb/k051gcN4qQbjimGGts7tApqtC0rpj9AaA/UM53JHzhSLdxoIeQLtt98QDMMAJcWMZPKzJZPDA43G/F8x5jYA3+FW1orJ9xQHPR9DsWObqBlEyK0vw+9qAW0V84QIhqFOBfQyJ/zcyMjICVNTU0F4bn+CEDqXCWhHIeYsoNVUX9+plUplraMdPr0Ynvg6dhiuRkCbOLza3ljVZDwBsJSLULzGmylCn/RlFQffyQU8Jt+Bs8WEercOKjcl1+xac9t6uAYh9PLgSd/3F/r7+k8sVuZv8RIHDb23CehfM3AzP8cGYXaFQvFvGOMR0KD3moo8Cei5BEpsraP6mmKtr8SnrhbQCKEEQhgiGMxElVZbnQYNb7RtpIXh4eHjp6enfa8LhzH+lmEYFzMt01U4WtvstE2ILkYi58iyDIh+a9n+neO4jxiGwdm94iveXtqiOMC8AYIaANTNcllE+KKkq69ey0G5/XZUFD8kKwqAViFMrCrW9frKUSxW5/bDzJawApmEADd6lVsagnguk0yeWa7VfuU1k5AdPNYN9f8QQs/2m15IVJmfX/gHIWQpk9CsjOJNg55JodSRVVRd0zJrvSygCUJ4F0Jo1IuA3nsdMuHza2NjY8dNTEz4HrpGCPk8QuiVlFITfMYHAU0xIRdZ1aD9XvOr6Q8qin+V1YV0BQLVlqhiVrWRJBOLA5osS3cdmt986vbC9lZqXpe2TZs2RR7YsePmeCz+BBAITVkyiw/DWNyE2dlNXTZFQSKEvErXdd+LRqyGjfFI/JlNuQFYHJ7Aktg6twT0NxFCL1wNHW6ehQow8/MLdxNCMvA8u8V4FNB7EModjkIsDjdTsK9nMGBmrPcioNtwI5rDw8MnTk9P3+OFquXe5Xn+QwihN+m6bgb+s9jQ1XynTYMGpIuXIYSuXU0fATz7pMWQsG9DRqf9sLM7YB/1TWsgZhVlC1wJNrIiyWAkgOIJcpQnj1+o17s61G4QklQk6a+SLGdi0ZgJlgTzCgLaTU1Me5inDWBqJhqNXixJEvgs1qyJovhCRVHgkOhYQMP47M5jwzAAedF3NLt8Pj9SKBTvJ4QkgGHscPQooMHMCUiZzsj/azRL3W7igMn/k2EYT2QaKRPUdjvUSryDK/VSuaFWfcDC4NDQM2dmZv7sN88Z6htUt21dv3woeIXQexfpfI/ftK6mv0xmeLxcmr1b4IUEEzJmCTFZRtShMHp7RAuLBYY9puv6d4NAPlvN2Jye5Xn+Y5TS11BKTcGwWucvPA88g/UKGjQg4mGM53O53NZCobCmKcYY8e+gSHu/Ew9W+j0IEMD8hqaoisELwitVVf2ylz6XezcSiUCCyq80TRuzRcK4+gzMQbuyZB2cgAm/1VUna/RQLwhowCw4i2XnsQ0PC94NYhwMkFVRADxfTdNKqXTfBeVy+TcB8PxsQghUgzZjy9zQ50RDNBr9vCRJa1o3LZ/Pp0rF8u90qh8HlTNAMJsx0WbNRWfwqvbEHZbooev6v/r7+580Pz8fRESNE2sdf2/W7duzB5xeS1EJtigMx/fZA6xYQSKRYNXQf3vCCSecfccdd6wMJOH6C509iBH+LEXU09piFVUsCnSMyAU60m/sjKJ9vyUIwrGL2aw/1zRtkGUHuzExsR5tVdVN7ZsQouu6/nuE0JP9ptXP/rpeQGOMAV/2IibsljsNV2IILCC2MawyTXVR4C9rBoDFG4/HHydJ0h9TqVSkXC77NU9QE8+MDFnLBpuZ54WlzQzCGa78DanuSFa7gLZpoQ1CyBt0Xfdd43IkysUDpGX/BxNAhI0BXrNjuzh1Y49wSCaTqFqtGhjjd1JKP+D0btC/5znhF5qhnuXlOyBAIFsU0P3KlbIa5WNnNLUmgIb53U7FGP+UUprqREAz+WHDk1F0XYfInMv8JtTP/npBQF9tGMa/2a8oqyknBQNkFX3jsTjETqoch/9NVmXfoS6j0ehGSZLg2mReh20VNDqeM4zx3cPDwyetddXrZCz5/Hqz8U3MYWhI0yGmmXM0ccDA280cbczYnUqljq9Wq4WOmRTAi3BrKBQKENN7BKOfCWcWpWMX1vsigQloWL/wgzGWOY47o9lsQt9r1gDbYmpyz18MRA/2QgTgezelJROulEyljqtWq0FUyQEl5QdgUWGHJXMUrkQ/85OwebClpcuUUij39XYv4w/63a4X0AihtwKwOc/zhMXTrlZAg40MrjUgVEyBgfB7KaK+23VbmLWF26LR6Hr4HgDa+9DAXnncWtevy6fyh81Xi7cRTDLgdIW5MKukONig9yWgbVo0BLICeP2HfeCVb11gjN9oGAbUghTsdudVxYJDfaZYzHQoWtozHFZT2Wz2iGJxbat4QBbhwnzpTo2qSS9MYzZoOHyaUnO2P58/LiDbOkSGXMdx3COqvzj5eexp6LAnmamD4zjdMIzXLYbwQr3Jrm29IKBfACFeGOMIq6RgY7JjqBM4CdkkQXhUrV6DbLavUIQu93tWTFttqfRrTdNOdJvE4EQDIUTCGJ+qqioAMa1lI6IQ/aaqKhByB9mAZmVvNzZouwbdPgAwPzUajcYiEuBzNE37xVoOkH0b6gVKkvT9aDSaAqcetHZtzVWyDkJLAsEmKD5CKTVjqtey9ff1n1SsLPzBQNRTFiEIEDMZSdcQj/m/Z/qzp83NzbVy4f1t/w6HOCEEs7RyN4lgTFbYTRxmRivHqYZhPAchBMllXdt6QUCfjhCCgqV9wEWYFPOKDUkPJmC3QyaRjfURMYJkRUaxaPwXDanxDICICGBmIH35OQwgyJ5F18m3BEHQKKUv13X9uk7e9/OdqJh4oa6rX9N0zQzLgpuJrEorfoI5d9sfYpoPiylGCN3F8zyEfQGWw5q1ZDJ5hCzL36SUmrjeLBrHrqnZTR5OjioYP7tW67qu8Dx/lqZp4Jxa0yYS8QWarn+DIr3jEDsYAChALA7aQMaNBkLnBzSwzyKEXiMIgll2ze0B2W7asGF4g5PoKRYCZUAke++26wW0KIpHKopyM8dxJmi/PczOjYCGBWSWalJkiL01K0ojhP5+xJYtp23bts33k14QhM+oqvpaN7S5nT5RFD+iWJlsbt8J4rm+vr5N1UrtdlEQMzAPwFMnDdpWQWRZkoBP0Jd1kD3U19d3dqVS8T2JyA0/RkdHxyYnJ3/K8/zRexMhWqndrLG4X/vvnfrOZDJmeSxK6fzQ0NCWmZmZNS+xxGPxHTrVrjIQ9SQDLGwVKzKC/6yqq2A2CKJ9j+O457Kq8m4FNCPErChvGKZSZ5keoWDHKYtlx7oWahRo9zQ5QcxCe4PV4YQAACAASURBVJ/RaHSDJEn3cByXZI7CVCplIoo52Z/aBwjhdtAMw7gzPzhwzuzs7IzfY0ilUpdXq9X/SaVSuFr1niRnOTn+b9OmTRft2LHDLEeyhg0LWLgOcdyLgPcmAL0LG/RK9NrjqnVdNwghf4bK6LIsP7A/xzkwMHBosVi8jlJ6kiAIGDaxm0QUJxqhD2iaptFFM92HFit6g719zZtIxJ+runa20wHrRChEScF+rFQrFCNyqY50yCT0u2Ge52/RNO0kMInVrTR7N4lgzNRoVxTg/3RdL1JKj0QIdS0OR08IaIRQjuO4ewzDGAbnFAgFuOK4DVaHGnjsigkDhvAwhNDu0bGxp0xMTPzL75WUTCafLMvyTRhjwXSiUec4YScaMMZ35XK5cwJyvjh9/hG/5/nI03RN/RHmMJToQ5LiPQkLDiHmeNQ0DdTVP/X19b25sp+K5Q4MDBw7Nzf33wihM+HAYAc/zJ/XxqI3DMMox2KxEyuViu9rbrU0jqZG+6eqe/5CMDlYo97GyDRoQoimG/R0TdN8D7HLZrPpcrl8J6V0YzqdhlBFFsvsaOIE3sDaAlOoZXs2HbeNRgMylLcghJzjRFfLYB+f73oNGvJMRFGEih5bIUGC2TTd1oMDEwc1WkJyCZtY19RsX+70YqXoezYh1HmbnZ39K0Io40eYnTXXciaTeUKpVLrTx7nvqCvAptj50MP/yyF0AQhoN3HQK32I2WhZxAuzGQqCMKvr+vsymczXg4p4GBoaShSLxRdRSt+p6/oowxhmfg4/skEHBgbQ3NwcsAB8CC/piOk+v7Suf90R0/Mzd3KIi3i9ASVicdRoNiDkUhKjkcMlSQLsHF8bhK+qqgo4HHHoGNaKWyc8KzXGEtuYiUMQhDtVVT3eV0ID6KwXBDTYKL8PHlfYQEwrdatBwwDBOWhq3i3tGTILaSIee3GlXv+G3zzdsGFD9uGHH745Go0eA+FVXpsl5OGEeSlCaE3BddhYInzkbEVTf4I5zOuGP35WGCdsPDPSxgLEJ4Souq7/KJ1Of04QhL8UCgXvNiOE0NjYWKzRaJxRLldepevaeXB2w9gg2QJsxXBIAD2NRsPr9LHisjIh5GxJktbcOQgDiorRF+o6NTE4VN1bKGjECmFFiNuVSCWOLZVKJc9Ma+sgmUw+qdls/oJl6IJyxqAG3HyLmapAfsB71rwGgrrnhp7VPNMTAhrCayKRyFs1TeNslRtcnaIiL5iCGcLCQEjvtV/T91OE3rkaZq3i2f9FCF3ituKGm35jsdinm83m6908G/QzkAI9Nz33VY3qF3m1Ydo1IfZ3ENKwkWw2fBDMPyGEfHtkZOT23bt3d4Rhcdhhh+UnJvac0mjULkOIg8SHKMcZpjCG78HBAMKZgWvZnJcds9QSDl/dtGnTa7rAhwDj4AgWvoQM43KgzSkKx2ngTINGiLvRQEZQERyv5Xn+06IocvZD0w5EtS864RkzSKBVTd48MGOxmKFp2scURXmb0/jW+ve9IqBfgjGGdGAThAga2JFYjOpKTGRYAaBFg/YNNkaI5BB4/kZF0wJZUJFIBMDtr1YUxTN/mVNksfrG31Kp1NO6JeOO56OncQb9paorJnJfp42ND4QkbCJm/7UcOe2aLKjr94ui+GNd1/8ciUQmotHsHkHQFEJIjWVbgunCMIykpgmCJC0My7K2kefJSbKsnIaQcRzHcWbsb8sWWTPXBGjvQANsaFgn8OP2Gu0w9ubAwMAT5+bm1roqjkkmRKrMz83/TFaUo9yESTrNK4uDJgT/l6QogaSvE0Ku0XX9ZRANAwo6HCwgaN34CJhJFNaVzeQI6whSvL/lNL61/r1nAbI/BhCLxU5pNps3AHA/28gshdMpkoPHZnptCyJSlszYXfi3JEsPHrJp03E7duyo+D0GnudPhaQLjHHMDyehBfGpRiKRp0uSFATIU0csEPno+xRNgqiEjtcRcw4Cn1gKL2xAEJgMhdBe4ggItRKWIBNMQgg3RVEsKoo6y3EIYls5w0BpURSGFEUB7OAIz/NxTdOWMtBAMDOHEaXaEhwqs4OzNcVMHh0xp/WSIYriR7shRJKNIZ3OnVUpl36SSqaEaq3qGCbpNHbw8SCEJB4LF8q6/GOn51f7+82bN6e2b9/+e0LIscx+zCIy2FpYqU97OB7TuDHGewgh56qq2hWH5or0r5Zha/Q8VAn+YSQSOYJFcQAdbq44IKAh4w3wOGCywEQC/wY84mQkddRcZc73mNtMJnNQqVS6mef5jV4TVewgPRbATleEaQH/M5nMeKlUgurUZhJRJ40dnjAvMLd2j3vb2E2Nlpm4GHynqu5NVLKnZDNa2kPl2vuACj12vAwGYwv/50OqfrWvr++EbojcYPyI8LG3KJr8sUQ8wcH4FM1b5KblhJ/IZLPPWFhY8B3be2hoaCP0qyhKEg5MMHG4TVJjY2Y5CTD3cPhqmgbV5KHqS9fWImS0d6z5dLIZPbwT5zjuH4ZhbII+GGi8m1RPeN5+4i5lPRkGaF6XKoryPQ90Lfsq2GinpqZuhgrf7Q8wIWKqVy7wooFewHEA5xUhZGcsFnt8rVYzwwK6o5EXY4yvolRfD3QyB99eweg9zLA7xrlvKh5RFJfjzINEUZRpURTfrChK11yjwTk6PT19i67rx5rocy4QF+3rdYU1u2N0dPTkyclJ30tHQdhqrVb7IUIoxQ5Xdttycztl6JfsWQuPY5umaRDB4e102g8Ls1cENGi/UJfvqXAagpYFwepusvXsyFf2645hGAD7+J7F8lTvC4LPVlLCspgLy2l6K9Fgi15R+vr6Tq9UKmuKhNZGK4nHk+9qNBqg2eMNGzag2dlZEyCoZfPzHgkRxPz41afNR4BGRkbQ1JTpv4SklA9TSt/h13f86GdgYOC4ubm5P7XM7y0QJyclwaWAvhoh9AY/aGzvQxCE1+q6/nFw6NqryrtVcFh/INyhWXZrgBm9OAh6/e6zZwS0le78VrtQduMotONI2x0G1gQHUoEY+o5EImcZhvFTRVFaqWQdNntEAaUUbJofVBSla8wcMKxEIjFcrze+IYqRp8D1k6GGtcwE3kMNO2TdfnsNNj8IMmYSIYTcnMvlLpmbm+uqLLV4PP4+OEgBz8I8RSh1TPRwEtDRaFTXNO3pmqb9KiCG38Dz/AXQNzMXMqXLjQYNMsKs/GOZz2RZ1gVBeL2qqp8LiF5fu+0ZAY0Qeh6EWUE5KZgoN1iwwCk73KA9NdQydQSGjQC2s5mZGbDJeYJzZKYCW0RBMZfLHVMsFrvKfiaKyS2aJn2PUno4hDLCwVIoAMTzgW/iyOfzpmkHtDNd1+9LJpPPq9Vqvte89LLzWzX9CmB7HWJryk0qu5OAhnp+uVzusCDWI5hkJiYm7hMEYQM7TBh2C0O2dAJLs8sA6yYKONCnIYRu98LP/fVuzwjoSCRymKZpd+q6bmYTsfRtN1c0eAaeZ44fZpfSNE0RBOFkVVWDyNDjIpHITbIsn71ak4Z98tkBAyFGEFaoaRp4xV6k6zoUce2yxp+FEIVom754HMwb7ipfd9kgVkUOzA+YOcBHgBAqJZPJC2q1WtdE2rDBiKJ4sa7r3wBcdRBUQG8nma7tAlsUxd/LsnzGqpjm8mHL2b4NMgiZIGYokSwz0MkJD/RaPgHzqxjjCqX0CIRQR7H0Lkn37bGeEdDpdDpbLpf/xvP8uNsYSMYleJ6hWbHwKsvcAerdFZRS36urWN+G7L8vcBwnsoXt5lrWPrvM+2yCE1EK1+kfZjKZlywsLPhWV8uvFSWKseepqvINw9AjbnwEfn13rfphGa3RaFTWdf0FiqJA1Y+ualZtRcgcNNPz2TrqZC22CWgIdXwTQujTQQw4FotdIknStYZhLGFW20GP3ERxMbrgMAKhrqrqvVahWH9SYIMYuK3PnhHQQDMh5Le6rp/BIB/dXG+Ytg1aNAvRgv9jZYsMw7gJIXROEHxOJpNH1mq1WzHGKWb/Xi2+A9P87RrDovNJjUaj50iSBDb0rmuEENDw3ycIAmAodB19fhJkZYuCLQcq/3zVz7796iuTyZxRq9V+Dq4R6JMpKSC03CR72eloE9CNWCx2WqPRANNJEA0Ou/PbsVHYv93ufzhEGfoiKDcWUH8Q9PreZ08JaITQ12Ox2AsNw+Dg+uxGQ2PaM7NbL+NgKA8ODm4OAnoUyiUtZiw9uJgFaZaKX4LoXCXCHcuggtkfHBw0wXc4jvsCpfQ1vq8InzoEIU0p/bJhGJ4yDX0iJ8huAGfjNbqud6VwhoHHYrHPNJvN17LEG1iLgApXLBZXzZc2AT27bt26jUHUy7RCVXcDmiUoKSx5iYXY2dO3VxoEkxFghtJ1nUqS9LHFxJo1r2jjlvE9JaBFUXyuoijXC4Kw5Ch0O9AVnlP7+/ufPj8/H5Td8AqM8achqg8WiZkcoCimE43hAziNoT1yxQqP2hGLxS5tNpu+I/I50bOK30MywHWEkDS8AxqbptGlccOmA1s1YG7A4WVPGLEBq6/ic5082sLeYHCUrAegjaWAMzsn0A9RAQsLC6xwRNMwdCjJdmMnX94f7+Tz+ccVCoXrMcYbgadwo3EqotBOF3NQA5+AJxZGCoUQOFVVA6npl8vlnrCwsPBbwzBEL3xia8pyiELc8xMWk1SC8Dl5IXOf7/aagD5aURRABMvYYQQ9cgbiod9GKYWT1feWTCaPkmX5BlVVNwMIEAN7sWNbr/RRBvbCUp9tzlGgG7ToK3wn2scOo9Eo1Pd7C8/zTwOwK0GIQAaimSRhZnXqFsIgbhVTYHZRH9KsXY6ihVwHh569GLE9+wyiUuAwBe3RSsShPM/fpGkKFJX9ncsPrcljgiB8QlXVN4FgBfrZOJiZwMnJBkTncrklbRt4ATkIcDNMJBLnVqvV7UEMTBCE16iq+hnw63np35beDePfo+v6MQihLkr0Wnl0PSWgBwcHh2ZnZ3+KEDp+NRqoiwn+5djY2LMnJia8o88v/zFA4nodw7GFR+xxs070tR9Gtn83BEGAgrJdrRGk0+mDq9Xamyk1XoUx5pkQbkXTwA9ZinEFYWkJAF8qmjjxFopE222xcDCA0IKDlGnQLMHJOkBUjPFnhocHPzk1NQWg713b0un0IeVyeQmb3HKSLdHrxkT46NT41uuiKF6rKMrLwJ0TAAMwx3GQTPI8pygtp2/D3DF/E8b4R7quP8vpnW76fU8JaGAcIeTLuq5f3kmI0HKMt65vzXw+f2yhULg/iMmJRCJPk2X5R2CTtofcudkg7HmmCcBis2lDRiQS+bIsy68Mgm4/+wSb4sxM4TxK6fsNgx4KmhiMpVZrYVWxazSLcwUh6fMhvOxwQEBDY8VrQYjZowP6+/vR/Pw8/B+llD6EEHclQjqAAnV9FEAikfhoo9G4kud5jsUR27NpmfBaaZ7ZGmUmH+sGqMdisYuazSYUSPa9jYyMrJ+amronEomk3JoBVyLCghiG5OErF0NAP+E7wQF22HMCGqpSRCKRaxRFMa8+Xk9YyzZFk8nkJbVaDU5t35uVJHA9IeQUEAQM59hNmNBygosBDFkRElI8HgdPOmhKXd9SqdRhkqS8TlXVF0O8dH9/1oSQZFEqDKwIhIebTDevA04m+5bwQywFwKQF+A72ZogX5nm+omnaF6JR8XNBVAzxOobl3o/H449rNBp/NOtVWHCq8ByD6mQREG5C7WC9wY8NZfD2devWPS+oG8Tw8PCFhULhW7quE5/2Nyg1sqIoUCT2jiD4HVSfPSegE4nE0fV6/ecY43VuFpcT42y24EBLEsVisTfKsvwJSinHtBg32ZAs24ttEBaNwuJvMcYGxHEffPDBb+wSQHgnlpu/J0Q8X9e1dyNEtxJCMAiMdjup3fThqtOOHmpB0cL3QSDDn2CKsrRLiJO/Ox5P/FejUYUbUK80HIlEPq+q6ithj8BtEw5zVtWarSE3g7ELd+sAM3ief4ssy1DDMYiG4ZYsCMJLgU43NnI3RHAct8MwjJMQQqsPXXHzgYCe6TkBDWDsCwsL31cU5Ww3JgInvjEByHFcGTzec3P+w48CDUNDQ0fNzMxcjxCCLKZVX9+XE9DQj7WAFZ7nnwkY1E7j7abf5/P5dfV6/YXNZvNcURSfoChKlM2pPSwxSJrBaQnCy5ZdCpmBsiQ1b9d1+uPBwfy1AYVgBjYsnuefqGkaoCmaERBMQDNz2WqFHotygcPLMIwH+vv7z5ufn78viAFs3rx54/bt2wEMbMCNCcaJBtjf1j75ugXS7/RKV/2+5wS0xb0PEULeBrY1P2xUrO5fNBq9TJIkKFcVSMMYX7tox4SrveuKMMzbzgQW037YZgMNxwoRg0wxs+9ea5bzFwBxXokx3twqRdXC7g6+7Y3iAPhJnicPapr+xVgsckOz2ZwM/vv+fyESiXxKluXX2wUzS05htxJ7xIoTBfYagBjjb1JKX+j0Tqe/z2Qyz61Wq9/heZ73Y29bNwBAF3wLpfSTndK1Vu/1pIBOJBJb6/X67YIgiF4z1WDBsoKlqqrevGnTpnOCMhWk0/njq9XSLZTSSDabNeNpvYIJ2eI8JxczLc+UZdn3AgT7c3Gm0+mLFEW5RpZlE2TKDzPWSvQzUxFCqCoIwqsVRfnm/hyv39+Kx+PHN5vyTRzHDbRMaN4OOZ4Xl1LDBUGciccj5wLkgt90s/4wQt9GiHs+w9xQrELPnX7PqtjT4Hn+eFmWAwkJ7JQ2N+/1pIBOpVL5arUK16CD3QzS6RmbnW0ym82es7Cw8E+ndzr8PY8Q/gIh5PK9Kd++ob1BVAEkhkAYYs+2dDoNAO3gIBpst38GMSjbNXo2kUi8qF6vA+54zzZCyEW6bnyT4zjLweZ1feGlcEOMuWsp1YMKrUMbN248aNdDO39pIOPQVDKFWiW5vDVrDYED/YkAB+2tt/3/dk8KaGCTKIpX+YGLbC9ASQgBB8iV4MwLaipSqexp1Wr5B6Io9sPiYWFmXr7HIlEQQv/ea2FE7eOOxWIXE0K+UqvVYvYUdy/8Weldm2NSI4Rc2p0ogasZPYY05g8SQszQOq8aNMYtFEhAfozFEmc2m9VbV0PNap5NJ9OvqtTKnwUfMk9a35VVZTVdPOpZQgjVdR3CUK/x1NEavdyzAhohBCEzv4XIIS+8YxqUzeF4z8aNG5/y0EMPzXjpd1/vtuKB576q6/pFrYIDZlZWxw3otxItQFUCzzrEevZy+x+E0Ct8qqjtyAdm27eSGa6jlL6iFzWtvQPFH8MYX8lszCxT05ER+3yglciHMfctSvVLEULebCb7+M7o6Gj/1OTk90RBPEOxhDLmMNINbzcAnuebhJBjZFn+V+c8WLs3e1ZAj4yM5CGYHfCDvLCPpV9bwezgpdZSqdRF1Wo1QNhI/qk8j683DCPrdQOBgAY7myRJ4Aj5IKX0nV74sZbvZrPZrQsLC38ihCSZgN4fjkKGkaKqqpxIJE6q1+tQCLdHG/4AxvjtPI+tVHpv8tRSXJRYLPXkZrMK5bICaQPZ7LmFhYUfEkwEVuLNhALwKKAhJR0hdKhnZ08go3butGcFNAyNEPJZXdcB0a3jccAChAbXQebh5nn+hkMOOeRl27dvrzqzcPVPbNq0KTIxMfVJSZJe7dVJaPEBNqNOCHmprusQTtSr7e2L03pVNBo11TbAxwi6sQw5C3YTss3+czHI5iNBfze4/vHrFuEzrsYYcW7i7N3QQQi5Rtf1VweVPXnCCScI923bdo2iqJeycmmgRUfECJIUT3VdQf2GupAfdjPObnymY8HWJYN50iI6FeDcLgF6r5YuZtoATRTskVZoT3VgYOC8ubk5AGYKpKVSqSfUao3vGYa+zssHbFgDUzzPn9ftuBz7GivgdUA6vKqqW+BWA6BE+yNRhUXBDAwMmCW6DMP41/Dw8CnT09M9A6hj52kkEjlXlmVIusp7WVe2d3dnMplnlUqlv/vU36O6GcwObq3Uyr+QVXkIfgmmDdPurWtenYSArfM4hNC2oGgPut+eFtBWlZWdkDLshVF2Z9Te8Dd01aJi/S4v/Tq8KyCEP48QvdzLN2w1C3+fSqWeWSwWW+AWPdYSicSl9Xr9WtifzOzkpmae12GCIICDGf4EnAlBEDRK6fm6rv/Ea99r8T6UiSqXywBKf6wPiR6AmPitIOOegUfjGza8ddfDD38Yc5gz08lVBQm8YCZhUW8iGrB1IK6+Z1tPC2jztMX4/ZTSt4PXmtWGYyWi4PdOWVN2DZotaCv//958Pv+cQqEQWOwkVFyp1xp/QAhlmdZgv+KxVSUKYmuxGhTB32F89Ua9tYipCuYZCLGD8KeeNG9ks9n0wsICYCqfwSq1r7ZqTqc70JZphmwQp78fGho6d2ZmxpsHt1OiPL4HadJQLIFSCinfpqkomUyaNulmswWbyta9VTzZ/GLrQFSWUAQ5jismk8knBgUpCt/cvH7zyP27twP41HFg0jBhdZFhatGw3t2E2bEiHOywhT4wxrqiKK/q1egNtgR6XkBHo9FTNU27UdO0HEM/Y+Wl3ACtsCsuy8xjNmlN02Se5/9L07SPe9wvK76OEf9ehIzXG8jIgPAFmlUrOD+TzpjASiC0QcszfweYCtayJZggg6Owhm+wbIQ9hTPAGMPz/GmEkO/JsjzAEkds5qYg2W/2zQ4F9m1BEMqGYTxdVdVuLoawT77AgVcqlb7Gcdyz2jMyIfHEXp0Exgz/BtMeHPzgXAQBtxiaBkVVwRZ/dZATkE6lLq9Uq58lmJigTk2phfjLIc5c504CmmXaMrAt2CNWtZW5WCx2QrPZhKosPdt6XkDD/orH499oNBrPBQ0asIQZ+hYsPjfpoux50FJZeR3LQfXQ0NDQyTMzM7NBzXAmM56plB6+KhKJXiHJEk73mcVHULnSqgcLQhuufCCMoZl4yY06ikVj5mI2EAVMhOcihKAYZk82URQ/pijKlexwZAdr0FmEpiDgOPOHHYKwFiRJgnj4jywe0uAw7MlmVauH2N8trQNIfkRhAuYUB2EMDcxKoOC0slsBSpW+fxEy5kMIIW+ByCtwzyxmOzUFfp4TQHuGeYe1zoQz/OmkQ7NbL1O02GGLEPoKQsiT+bAbJv5AENDAx4tjsdjXm80mpPCbfGX1/9xo0W1CeamyBlyTCCGXBZ3+C6BBxcLCVRzHvdgwDB4EFVxJwSbKhDMTJEy7xhym1KD3CiJ/iaIod3XDYuqEhoGBgUPn5uZ+w/P8GAgJgPf0wXa6KlJYWjEc0BBuCbcUSZImotHoKZIkdTUo/0oDjcVij282m4Atcwi43oCvrCKPHWecQR1YVXsUQRA+nUzGrwq6anxfX9+51Urlh+DkBwVEp7opnE3nsK6ZZg6nMDs7Toit2lBPgoctN5cHhICORqMbJEkCW+4G+yDdOplgQcAP0yaYgLBMJndY+ByBevXz+XyqUFh4PofMMK+NoNzBorWyuFgNPLDLUZ7wu1Rd+1wMRb7dRM2JVUmjLnvYSqr4iCzLmPkO4E8Ie9sfqd4s3hrWCrN7W9d9qqoqJP0EBau5X2YC8Ler1folhPAvplQ/CGPMsdhyO38JIRCpeT8h3DsXy0JBDoC3DBGH0W3dujXxz3/+8/s8JmebKHmWMcMewQHZhKruri4Cq/xi3bruHRgYePzc3FxtvzA5wI8cEALa4s87eJ6/CurerWZj223QrHAp9MeqB4MDLpPJXFQqlQJMXNk7w/lU/rBCtfhcgrhnII47kho0Dtc/WZEpQtw9/7+9L4GTrKrOv2+tvbq6prqnp2cGhkVAliAiAUTZZVEURVBcEDUuaPyrmIhLYtwxbsTEACruICqKCAgIIgE1EZUYAmYAHWBgZnqm96X2t/7rq36neRQzXa/6vep6VXXf7ze/6e66y7nnvvreeeee8x1JFG4QLfFnGuteq5lWm81m0zMzM78SBOFwVJkGcT8uHNbh7cGht2zj7U8HY0b9rQnzEX+y4+J6JJPJHDNHgrVVkvYOrijx55mm9hLLsl6Ks7l4PK441VHmBUF8wLatH+dy2ZumpqZ2tleSxdHXr19/yo4dO24TmaAAnGE541qqHMTs+iF4M7Ik7Fs9Jbxarf9v27Zp2zZcGwg17PqrZwAaxVkLhQKIbkawK67XnWU3qRGg3SWX0NEB+1/st99+r3/00Ufb5ovenZAII0TNzvn5qp1ISKV169bNtotprxN3MgrKIpxN13UV5wcADOwbMRS28qD1Iz/5vsmydBVJBbnOixljd/oZP0x9kRTy0EMP5SzLikYiA4JpFvOFQmGqTbUFd7t0JGpt2bLlW6Iovsa2Fg11WM7uCxEceIM0rOaZkO7KRIIgbIvFYseUSiUccnb91TMA7ezE7dFo9DRYP3Rg6GWH3IeEbuJ2Sl7Rdd2MRCKvKZfLP/IyHm/jTQOSJIHDGgRFSx3c1T/wx3YfFLr93ThgwsOBuJMxv23bKIN2vrcV8VZeNJDL5U7M5/N3GIahSIJYj1pyHwziwYw9gE+6WRQHvrv09mMYBuK2f2xZ1qu8yNENbXoNoF/CGLtBwY6B8UYPgl2QSiJZ92Wza8+ZmRnr6rCdsNyUkUjkgFpCyP26rsf8yuRs99Msb4xJZwo+x5+LRqOHd/Nhoc/1B9p9w4YN2e3bt19fIzo7MShCLBpHUZSyruvHMsa6mEvl6eruKYBOp9PZUqn0H4Zh/BWsIVjSXqI4lrsDQbfoWHHl9evXvWPHjh094dsK9Fu3gsHi8fhbSqUSmOt83YPug2ACanfdxgDIlixVVS9odyTPClTYlV1GR0dfPTY29o1oNJoIgmsF++8wEeIM4Rbbts/qSsXsQWhfX46QKgLZQ5dns1lpZsZ/3kYikarHVi9e9l377rvPRY899lhXUheGZb9ALTk+Pv5jwzBODEImSlByj7W7v/mY6650On3ewsKC/xvKhxDdQoaUhQAAIABJREFU3vXQQw9du2XLlu9WKpXTAKwwfIJwYSEktVAoIF77TMbYXd2uJ7f8vQjQIB/6nSiKG4PYfMZEBn4OkPfouo4TjQ8yZn2+l26C1V5LIpE4o1Kp3Gyapi8ub8jt4iJ5xuFiEEWFHR+1EY1Gz6xUKj1zWLjae4754vH420ql0hWiKEp0iO/3DYfOEKLR6F8qlcqh7Uys6YTOehGgocf31e6Hz+FG8AvSgiDVkxcogUIQhIdyubWvmZjY0TN+rg7ceFdKknQR3FB48Pm53JlklMyDV16/X3ySyXXYjEofoPLk1wo0MDo6uteuXbtuQG1AnA3kcrk6e6Dfy/E/45QZe/MVv+OFrX9PAnQsFttYLpdRdn4//woX6ymweOI7aeSWKEqXGEb1i/7H7r8RRkZGDp6cnPyZaZr7EGudHy1QRRQ8iGOxGF5vxXK5fCIR6Ph9QLt4OrYmEonTFhYWuHtrZRv2eqeqvYSHHvYNYZXNyMyaTeU8oB9PJBLPLxaLu5q177bPexKgsQmiKILI/9/B6OVnU2BB48sOkIZltnjwaN21adPer9y6detiZgW/WtHAP9a25xPpdFrAW0kQlxMHOxaNRt+AkkyVSuV7oiiO+gVnks2Ji0bEF+r9fS4ImfttDEmSUAj4fAqhcx6o9YxRP5eTAfmWGmspqGp77upZgHbSvv/EGEv52bV0epFRDuCMLyrIZARB2DUyMnzi2NhY26hI/cgc1r5DQ0Mjk5OTd8qyfAj8+g5Bvm9xHV/zTU5Vc4x3kyRJLw3KzTEyMsJ27dqFB/VDsVjspGKx2JZ6lb4VEdIBhoaGkpOTk39E6al169ax6enpeghkK7kKyywNVY/A+bwqGZCrreJeBmjoEvX5PgaDGgkQsH7xSkQ+ZW/KFpduJKQjw82BCseDgwMno36etzF4K2ggkUhcWCwWv5FKpSQ89GhPltMOuSqofBPAmOhkAcAOLakpy/KLDcO4A2NFo9ETK5XKHYiHRyw8kQTRz272umax0lT13aHtNEzTfD1jDMkr/PKogcHBwb1mZ2cfisfjcbg1KLnEIWdadhTKJqWoHCqSDAu8WgX9QZ0SFaXSevLqdYDelzF2TyQS2YBcfTdI05e02a4qSmQps4yIixRFqQ4ODpwyMTHBAbqZAp/6HK6mq0VRfK27pFUzK5cIjAigKeYVw7p+/lM0Gj2jXC7vwN9TqdSaUql0Wy0u9ig6RHQXZiCSei9RHpQEgXsHV6VSuYox9jbvy+YtY7HY+nK5vCUWi0Wx361az26QxkOWXFeyLI/LsnxMpVJBVaWevHodoLFpH0XhSEEQFGw0bTC+eNjoZgCBMDsCdldK+Pj69etO37GDR3J4/VYMDAw8t1Ao3GWa5gCsUlhET8WX73kUImQn4vndJB7BN/xunDc0jPJWnOrLsiziIIqsbrSh0DyvSUy4bzC/wy1eSKfTRywsLGzxuvZ+bwdOmXw+/yfLskZJF438J3vSEVVJge6xX4h5ht8avmdN01CS7tJe1m/PAzSoSKvV6g9t2z4Grg24OYiY30squCQtAjndKA4N5n8nk/FXzMzM8LRv79+Oz8uy/PfQPR6O+IJ6ySQjC5os5kYLWlVVZBEdWa1Wn3YeEIlEniUIwn2WZaWdEkhLxPyuqjlNpYeslJlIjWsyfcyyrI837cwbkAZAvYCoquPwcATIzs/Pe8rydbunEFGD/XAOl/8zmUy+olAotJUGuNNb2PMA7Sj4jYIgfN227cWyJIzVbxIvMbgAaIACrGj4zxyL7qumedy7GLvbG1ltp3e5w/Nns9mNMzMz94uiWC9Lhoecd/0vbhm5OMiidsU6I/X+jXtY4pdFUXwXPWDJCgfoU9mnZqpxn1lAZjzUq9Xq5PDw8GETExP8sLCZAp3PZVm+zDCMi6F7HA7iDMIrXzvdK0ReVq1WTUVR/kbX9Z6nXegXgB5C3T5Zlo/HTUGWmxcfJHFxuFjPZuPx6AWlUqkrqz57/D4F2iyRSLyhWCx+S5Kk+mEtHnSwhhw+4mXncsc5oyEBNEDXtu15WZbPNgzjnt0NEo/HjyqVSncKgpAmy5vcGuTu8uLmIBcXZMartmVZqLRzjmmaiBzhlwcNRCKR06vVKkpwrccZBN5Kmh3QYlg6A3Bb0oqi/EbX9Zcxxur1uXr56heAxtP6FMMwvlWr8ruRDh288A3jkJBcIc6T/PLR0ZFLxsbGSr18YwS1NqeA6Y9t2z6V+Bfc1nAzgGyM4qBsQchnWdY96XT6nD1xZKDm3djY2I2qqp5aL7Zr20vltLzyhVMyDQEEgAX3jWma1xuGcW5Qeur1cTZt2hTN5/OXTU9Pv4MK1eIh28zN6Pb/O/Hu44qivLxbC/q2us99A9AOa9oVgiC8UZKkqPcMpsU8F+d17LF4PHp+qVT6Q6uK7tf2qVTquFKpdDd4NyhUCv/X+X5dPNDL6acxksP5HUlC/1obB2GUe7xqdSU/Eo/HP1gul+NUKBXzeo3iIaudLH5XUdKKqqpHapq2uV/3ttV1K4pytG3bvzQMI9EK1Si9NZmmqcuy/CXDMC5pde5ubd9PAA3So4HZ2Vlksr1XEAQZfAAImqewHdwIuNxWHaxmRBvYtj3NGHs5Y+w33brZnZBbkqT/kCSpzlrntmJbBUhYstgHgLsTPzuRyWSOnpubWzbEas2aNeunp6fhAtnP/YDAGF5koOgPuifIf431mKZ5q2ma4CDnl3cNnCXL8rWGYaSwp9iHPZU2g65R/gwVxwRB0Gzb/jRj7JOrWf3F+7La07KvABoqdED6wtobMkJ01pB1RpW9CUgITERRNCzL+qWiKB/Udf3+9mxDb466du3afcfHx++RJGmDA2j1hbbCk0EHSdTHqeJsl8vlK1ogL/piNBp9H8AAD2N3FZVmmm+Ulaw5Zz07YrHYseVymUfzNFPk0z8/lTH2AVEUT7IsSyL3Eaxq/ExvV85BMMIoEd+OcFmkc7e1mG1ry2h/674DaFJpNBo9XtO0t1mWBT8iaC8X69LXDWgbNwX4ZVEx+4vpdPo6zgXc+s0oiuI7a2FulwmCEHG/mTQe/C03Mvkg8cCkA0bG2GQsFju7XC7/1otU6XT6qIWFhZ+jviOlFxO3SrODqgafd+N0iOJ5E2PsGi9y8DZPaSCZTA6VSqVzLMt6J2NsbwRWCYKA7yC+gJZt24YgCGXbtq9TFOUqXdfv60f99S1A02bDL2ZZ1ibTNA/CCTNjDHG1mxVFeTAejz8yPz/f8yfF7bjxc7lcampqCpmWh7nHb4jC8DS1m9zd6X9TNpt93eTkpCeuUqdI6Q8VRTmbDqW8hnhBQAJpOtxsEBrAcXS/WXaeNs5bI1VV1QM1TcP3b3/GGB7mO2RZ3iLL8uO9nCXoRT19D9BelMTbtK6BaDR6kqZpt9f8hvX6kGRBNwG7Z0zkDq+CNY0QN8Mw3swYQ8HZVq4LBUH4hiRJEl6hXYd9nsbYnVvG+VvVsqyjGGMPehqIN+IaaEEDHKBbUBZv6l0DkiR9U5blN5HF2hhO1yy8rnEmV2LLI4ODg6fNzs4+6V0axjKZzN5zc3M/Zow9byUsao0PFkr7x991XUeFnb6JLGhF77ytPw1wgPanP957NxpAmrVt2w9omlZnGKLomN1Z0l44m10cwraqqv+kadqnVqL4RCLxnmKxeBnOG9y8xMuN5T5QdEf5kKvGOdSai0QiR1er1T+vRC7eh2tgTxrgAM3vjcA1EIvF3lMul/8llUoJSOnd3QULFIeFzRIVnOSE+gGhpmmaJEnH67r+u5UIrarqYZqm/R5x8BTN0ewB0Zht6gZsyOakruNQ+SLGGKqU84trIDANcIAOTJV8IGgAtefGxsb+T5blpPdkoD3rzh0Li3T9TZs2XbB169aKD21/TRTFt4LbG8UX/F5kVYui+AfTNBHvzTNM/SqV91/SAAdofjMEqoE1a9aA5e9HsixLzaxjrxM7KfkoDPpaxth1Xvvtrt3AwMCrCoXCNaZpKpS44mc8V13FeUVRzuiXFGQ/OuN9vWuAA7R3XfGWTTRw8MEHqw899NC1tm2/Mgjww3REVKQoyj1DQ0Pnjo2N+SoFHY/H15XL5e/Ztn2SV0a9ZhvvcoNcyRhDXC+/uAYC0QAH6EDUyAeBBjKZzHMKhcK9oihGiO/Cr5sDQG9Zlm2a5nsty/q3IDQdiUQuqlarl4uiKDbzQXuZD1EhYLmrcUTAvXEsY+wBL/14G66BZhrgAN1MQ/zzVjSA6hYfHB4eFiYmJuqsb80y9TwOXlRV9RhN01AE2PcViUQOqFarvxAEYa9Ww/0aJyfr2Ul8wWHhB2rlFxF2xy+uAd8a4ADtW4V8AGhg/fr1G3bs2HGvIAjrYVGCc9vNvb1SLTnxx1cedNBB7928eTPS7wO5VFX9hKZpKCrs+6K4aqfA7H2xWOx0Tg3gW618AIeCkyuCa8C3BiRJ+hvTNL+aSCQk53U/KAu6lMlkXjI3N3e3byFdA0Sj0RMqlcqtjLG4n3HJR07VxnVdBz/HObUyXDf7GZf35RqABrgFze8D3xoA18UTTzxxi67rp1BUw5o1a+pUrgFcfxoYGDg+aE6UZDI5XCwW77Bt+3A/MhKZExH5OzUrf5jL5d7Mizr40SzvywGa3wOBaECSpFdYlnWdKIoyDgepWgkGb+bjRVuqLwi6SVwUnicIAljNkAByVSCCPmMQ6Q2MmV9HZSWinXVKadWzH2EVeznkdFV7r88gSVLeNE2EBP6sPXLzUftFA9yC7pedbuM6E4nEvxaLxXfjdZ/KGAF0vTLGEThShRUAI8C6UqkUotHo4ZVK5bF2iJ/LjR44NTX2S/jN3eT9mJ9+bxbl4T4Ihcxoj3VEIpEvVKvV97dDbj5m/2iAA3T/7HVbVjoyMnLIrl27fiRJ0rMREodCsAAtALSXRBWKggC4w1rFPwJ2QRBQy/C8tgjuDCqK4gOiKB4GYCUwbkV+DON+C3AY97CO/0ulUufm8/mH2yk/H7u3NcABurf3dzVW97FIJPJPtm3X7yUKq3Nbk16EQHuAM1musizP1Hi5X2UYxi+99F9Jm4GBgf3K5fIttm0fCKuX+DmozFUz6xlzuovJ4qFE7g5JkuxqtfqJWptlayauRG7ep380wAG6f/Y68JWuX79+zY4dOxBdcSgGB8jCIkaIHYFXMx80rG6AGqxtALSLCvT2XC533tTU1O7ZlnyuRpLUcy3L+LCqKke4wRnyumtUNpOfxMC68RZAESz4uyiKmxOJxAn5fN5X9qPPpfLuXawBDtBdvHmdFj0eT71c08rXMsZiAKdC4akCJ40scMvJStYz2jiAaCqKAi7pq4NeYzKZPaRSKbxOluW3ViqVnKI8dRBIpbjIF+7Fh97YBg8bFANwiqHqlmWh0DDC+fjFNdCyBjhAt6wy3sHRgMiY8DNBYGcCVImGk/yxFA3RTFvuyib4Gda3bdu/Xbdu3Wt27tz5RLP+Xj/PZrPpUqn0Ul033iUI4tGGYQhgtMvn55ciTRpdG14eMtSGXBsUkUJyRSKRW6vVKq/87XWjeLunaYADNL8hVqSBtWvXHjo9PXufYWgRuCXgoiD/s7uGoNfBnSw8uDkQWvfJWr/AfLeZTOaIubm598iyfIFhWCJitXEtPgzMpYICfqq+4HAQOiD6UcyBNwoUPk2n04fMz88/7lUXvB3XAGmAAzS/F1akAVlWP2sYxsWMWUs1B1cyEAEamOVA7q8oSikajR6Rz+cDqU6iKMp7dF1HPcIjAKJwX1Bss5t8fyWye+kjiqJtWRY/LPSiLN7mGRrgAM1vipY1sN9++w0/+ujWnzJmH8uY1XJ/dwdyKzhRH7ZhGKhKguQUX9fw8PDhU1NT72aMvdSyrCEMRoBMcdb4HZl/7bwcF8jDa9euPWF8fHyinXPxsXtPAxyge29P274iVY2frWkVxD4rpqn7no/SwxVFARnSCX5I7/Hw2LFj58sMQ7vIMIwjqbQW/oflDAvaxZvhW3YvA8iybNTiohHP/VMv7XkbrgHu4uD3gA8NCLczJpy2OIA/Cxq+52w2y0BPyhj7XSaTOWNubm5uJcKNjo4esXPn+EckSTrbMDQRVjn8wgBnSj/H4SV+xuUlkWYlcrj7uJJufmrb9iv8jsf795cGuAXdX/vte7VwHUxMTP0+mUyqxWKxfsjm93IqbFuWZb2XMfblVsc78MADU1u2PPZK0zQ/xBg7AP0REbIY37xoNZN7gyJOKNrEC9dGq/K425MLx7bt6po1a46Ynp5+yM94vG9/aYADdH/tt+/Vqmr0k5qm/UMsFhMoCsLvoE7l7s3pdPrshYWFLa2MNzo6etDY2K53RaPRtxuGIQOAAfjkW45EFq1oADS5OQikMY/XRJRWZGpsm8lkcACKqjD/VMsM/5SfsXjf/tIAB+j+2m9fq924cePotm077lVVdSP8uIsg6N/FYRiGLcvyJYZhfMGrgBs2bMjOz8+fXSpVP2yaxn44AyQ2PPIzL7oxqvUhAdD4nDIFBcF2WPRQBKV9F7lZMIMoiuOZTOaomZmZbe2bkY/cSxrgAN1Lu9nmtcTjqbNLpeL1IOWHe2PR8gU//covJ3qjaprmCxhj93kZCW6WycnJS2sJLaczJkqUiei4Suqp2gBiuDkMQ6u7OMhaJotZEGA9e5nNfxtkWSJWfHp62pQk6fWmaf7A/6h8hH7QAAfoftjlYNaIeOf/ZIwdBeuZiIWaEQo57ot65AT+NbobRCYxm1k/Hl47/Mbx8fHicqLC1/zII395g8iED8myvF43dPT1tTqKw97TIHTIB2AnGlIAPhEjNVs/We8uVwoeQkf7fvXwtWreuVs0wAG6W3aqw3LmcrkjZ2dn7zRNM0OiuF/f9ySeuw0BO/E/16uQyBFTM4zzGTN/vNwSN41uOmjbrh3vsy3rApvZUbSNRWOsVFkW05tqrRlAu3mi3WBLkSHNiuK6I0kA5qqqTiuKclKxWHywqXC8Qd9rgAN0398C3hQgiuKnBUH4MFmSXkPU3GRCFElBB3b16Aombkkk48cVCoXdJnEcdNBBa57cuuPl5Urx44qsjOqGLgCYAe51P3i15G0Be2jVDKDpDcApXrvkPiGaUS96wBi46A2iVnnmU5ZlBVKw1tfieefQa4ADdOi3qPMCZrPZDTMzM79njK1zA64XtjeyOhuJiJ4qE2V9lLF6KvQzrmw2e8zszOwnopHYyZVqRUKDodwQm5+fZ5q+WOC73S4Ot/wE1uTi8JIqTv5xN6EUY2wyl8u9YGpqKpB09s7fIVyCdmmAA3S7NNtb414Qj8e/VSqVJKoY4q5A0myp5NJwg5TzczmhJk7PV/K/do+Bgq5axXyjbZsflWU5XqlWmMCEOt9yPbSP2fXfIUtF85eq3cyCdofhudfhxffcCO4AdowRiUTsYrH4LsbYFc10xz/vbw1wgO7v/W+6+tHR0fj4+Pj3TdN8GVGDkuXorse3p4GIY5kADQT9uOC7tW37vxljxzHG6rFwmGt6evoU27DfrpvGmYhMo3FlSWaGuRgxIgoiQ3o4wvwMy1+qeTOAdmcgkizuPs3iqClrkRJiXD75thYkaLqxvEFXaIADdFdsU+eETKVSZ+Xz+aslSaofDlL0ApWnagZQbn8z+gOg0UdbPF17D2PsK/h7IpE4vFwsv1oUpYtMyxxUZIWB4W52bpbhZ8xHfNGwpEvlUt2Ktpi/TMZmAE0ZiW4WPLKMSR9edoceblg/qq4wxkqRSOTcarV6m5f+vE1/aoADdH/ueyurRszuq6mQKvlfW6naTVYkveI7cckPRyKRl1Wr1b+kk4Pn5wvz8EM/C9YxrG70AZABQE3LrFvN9UxA02CSWHdH19u00cUB5NclSbpXFMWDLMsacbt1Gh88e1IoPQAogoUeUk6mIyJX2loUt5WN5m3DpwEO0OHbk9BIlEwmDy0UCjgcjPkRqtHNAfdEJBK5TRCET8zPz19qmubzGGMpl3W5VNnbz7zuvhgb/xYWFup/xgMHl6YtWuawymdnZ6noq2YYxifi8ejtpVLpPsbET9fcMB9KJpMCQBqVy8kf7jOTshyJRI6oVquPBLVOPk5vaYADdG/tZ6CrSSQSf1csFj/n9gWvZAIKScP/cFUA5ADakUhkShCEHACP4oqd1/8l9rlmLpRm8rjqA9abAlgxF4FsMpmug7YTz2wxZt8sy5EvDw9nfzs2NlaP4ctms8+fmZn7CWNsLUCeYp+xBmQq+rhsRVH+Vtf1K32Mwbv2sAY4QPfw5vpZGuKPH3744TsYY8/1Mw6FpmEMuCTod0rHBuAhMsMdV4yfqdafX4DGvJgzlUrVw/No/qcO6xbPIWVZnmZM+Mzw8JrrxsbGnsaVsWnTpuiTT277omXZ70Rb9IXcAHm/qe6MsQeczMLFUuj84hpwaYADNL8ddqsBVVVfpWna94BdflRESRoUxeFYznV+DFjL7kQQd1q1G9j9zI++AGennNYSox39zbYFS1Ujv1AU8dP5/NPD/dzzxuOpszSt+lNBEOqhhuAiWXyI+IsigZ9bluVTDcP4ld918v69pwEO0L23p0GsCPcFqn+8zO9gxCIHwIVrgDg8CLhpfIAdLmTmBWE107gExJQJWD90dMiT4IJmTLw4m83c3IxhbtOmTZu2bt12rSCwY/EggZyLlWAKflWEh8aPLMt6le+B+AA9pwEO0D23pf4XtGHDhr/avn377yVJirjAbEUDu4mVKKaYxnSY7JYqYTdGSSz6eP2x5ZHQ8D1jPIeFzxYE4e5aYuLlpmle73VhiUT6vcVi4Z8RLYg+QbD5OT7ysiRJz9U07WGvsvB2/aEBDtD9sc8trVKW5S8YhvG+eDwuwM/q53KngxOjHUCXOD0a46ndcclBADT5velgr3YoN6nr+rfT6fTXWi0OMDIycsjExPQPBIEdSj5on1EcVOkFxKf/WAsuudSPrnnf3tMAB+je21NfK9qwYcOztm/f/ltFUdYslozyT+dJ7gs3hwVRdxJA0zyNmXe+FuMcTDpzYCH3K4py6V577fWzLVu2LDL5t3YJqhq9WtO018F1Ams8gENCCinEweRBSGBpTSTeupc1wAG6l3d3BWtTVfXDmqZ9cmBgQETUQ6cvV02/3YoCNwm5TADyRE6ExiDJLxTqPmJdFMUvpFKpb8zPzz/qZ00jIyMn7tq16w5UNKdkGj/joS8yJkulkm5ZFnz+P/c7Hu/fOxrgAN07e+l7JYccckj20Ucfva5SqZzihanN94QtDkDuD7cbBBEViAaBywTgDLBDXLMD2nAd/JckSZdt3Ljx1q1bt/oOZRsdHc1NTExcbRjGGU8lq7S4kIbmxGmSSCS+VCwWL/Y3Gu/dSxrgAN1Lu+lzLaOjoy8aGxu7VpblHNwCQYa6+RSt7qulfxiLIj3wP6IpiCPEsZjhNvizKIrXDQwMfGdycrKlQrTNZJUk6UJBEL5hmqbkN+KkgXDq8VQqdWY+n+eZhc02oU8+5wDdJxvtZZmJROKbxWLxTV7arnabRlIjNzDiwI6iPSzLskRRvHtgYODzIyMjd23evNlXqt/u1rlu3bq9JycnrzcM48gg9EAUriieyxgDkT9Sy/nFNcA4QPOboK4BRCjs2rXrrkgkMoyIByIDCirMbaVqJh+022p2j7VmzRryM8PVMVsrXPLJTCbzk7m5uSdWOqeXfqqqflTTtI+iYLiX9ntqAz82fOcUF24YxpO5XO7QqampvJ9xed/e0ICvm6s3VMBXAQ0MDg5eMjs7ixhfgZI7vFZMaacGiWgJFvNTFbmfcnc4KeOI0LgpkUhcXiwW72ynPDR2Op3+63K5fKeu66kg5stkMmxubg5DGYlE4iXFYhFp9vzqcw1wgO7zGwDL37Rp08jWrVtvqEUQHINDNvhxwwDOkG13FjRVNnHIl7ZlMpnLKpXKDZVKpa1Ws/tW2bBhQ2znzp0/QCEDP7cQWc50KIsHjizLtxiGcc5ipiO/+lkDHKD7efedtWez2dNmZmZuqRUzlYlUiAiLOu3iIN9z42GcIAiz+JdIJC7M5/O/6dA2vh3ZiKgHG8T86XS6/nC0LKsSj8ePK5VKfwxiXD5G92qAA3T37l2Qkl8rSdJrcFgFInlXWaYg59jtWFRphD6k9G+KaYY/HG0gG8Vly7K8yzCMDwwODt44OzvbsWDt4eHhtRMTEwDRUQq5IzIoZGB6eQuh4rlUzAD9sWZRFK+0LKvOnsev/tUAB+j+3fv6yh3ejZ+IorgfcWXAWnVetQPjwlhOzQAlJJWAcQ6ABbAiyxmHgFNTU3WA1jStkE6nv1sul7+j6zoKCXT8kmX5SzVL/j140yASJS/ATIK7syyJt8R5QG6JRqMnlsvlHR1fJBegYxrgAN0x1Ydm4s8qivJ+XdcFAhb8D5D2S5TkZYUUIkdz0e9E7g/Adjg5HpRl+bJoNHpzPp+f9jL2arSJxWLHlMvl70uStIk4ronL2subCPnTsX60x7phQUuSZJmm+YFaouEXVmMdfI5waoADdDj3ZVWkGhoaGsnn8/dVKpX1sFABjrBi3Zb0agiCeUHfCYBCViCsafBcOBfo7L6ZyWSumJub+9/VkKfVOVRV/Z6maa+F3FgH+e0bqE33OCx0j7ZYO5JuUMAAYB+JRB6vVquItUb4IL/6UAMcoPtw02nJ6XT6tQsLC9/FIRf8vAAIBxieRqbfThURORLmAEDjgh9ckiTTNM3N8Xj8QyMjI7957LHHOuZrbrZ+VVXP1TQNxXWXDgsHBgaWfObL9ae3FsoohPUNf7bzgNJUVX2tpmmeKVGbyco/7y4NcIDurv0KWtqfy7J8Oqw3WH64CDBWK4qD0snxgMDDAQ8JVVVnI5HIP+u6/oNKpfJk0IsOerxcLrduamrqGkmSTiYCpYYU7j1O6T4kdbtECKhLpdIdtm2fHrTMfLzu0ABNNCmxAAAgAElEQVQH6O7Yp8ClHBoaOmJycvLXIH2jwd3Vt8maJeAOXABnQFia8Lk61rvJGPtFNBr9bKVSAaF+11yKorxb1/UvIdGHgNYr4ZSbdIn8166+xWw2++xmFV+6RlFc0JY0wAG6JXX1TmNVVS/VNO1DVJIKh4IAY1i0ZP355YJuUVsztYTGf83lcldNTU3tbLFvx5un0+mjFhYW7pEkKUZRMF4PCSmkEPqHPx79qaiBKIo4LPzbWjb+Vzq+SC7AqmuAA/Sqq7zzE27cuHEUJa1s217fbmnowBEJMKABxUWHgI57w5Ik6Q5BED5hGMZv2y1PG8eX4vH410ql0puxLqpW7pftzuG73jYwMHBYJ2O+26g3PvQyGuAA3Ye3RyaTOXtubu56URSl1bKS3a/7LhrTJyKRyOcFQfjZaqZpt2vLBwYGXlkul6/RNC1KKfN+53LiwXVJks4wDOMuv+Px/t2lAQ7Q3bVfvqU98sgjlfvvv/9a0zTPbSWhYqUTA4wxD/zMsCrxO8LIYrHYzmq1eolpmtesdOyw9cNh4fz8/PdEUTwJ7gq4irBWPxclr9i2/W3GWCipYP2sj/ddXgMcoPvsDkmlUscWCoWf16qMpFeDZwMWoDvDDoCDA8FYLDalaRoA+lu9tAWiKF5iWVadFTDIdUmSVJJl+fBqtRpo8YEgZeRjBa+BQG+i4MXjIwatAUVRLtN1/WIvB1hBzE1VUMiV4q6MYprmdkEQHlVV9cZUKnXr1NRU11cSyeVyz52dnf0RY2xf6C+IbEwnygNk/uCf/mQQ+8LH6A4NcIDujn0KRMq1a9fuMz4+/ktVVfeh7D2/r+DNBCPyI3JzoD3mhssDF1weTiWRP8iy/BNFUe6uJWf8eX5+viuz5zZt2hTdtm3bZbIsvwNvCn4vvHFQIVzTNB8bGhp6/sTExLjfcXn/7tAAB+ju2KdApEwmk28vFotX2LYtBjKgh0Eorpf+Rxf33wYHB+uZg67UbmTM3Kmq6jWRSOS+fD7/Zw/ThKpJJpM5YW5u7juyLO8dhBvJlTxk2rb9BsbYtaFaMBembRrgAN021YZrYFh2W7duvUUQhJPBOwzOjdWI4HAfRFJaN0ALrg6qyI2fEfUAi5OyGp3aglXLsr6pKMp3w8Je52VXBwYGBovF4vdrYYO+MwAp+gUVVxy61V/Ytn2aFzl4m+7XAAfo7t9DTytIJpMnFovF223bruWoqPWkFHz5VwOkPQm4h0awtkVRrOi6fj9j7KqhoaFbJycnd/kZczX6ZjKZN8/NzV0lItNkkfjoaURQXjM1KXEIrijEj5dKpYpt28cwxkJJHLUauu2nOThA98luq6r6WURNkO8Zyw47OLu3xqHlBIHSNsbYV5PJ5M2FQuFhnMOFcQtTqdRB+XweccvrKHEFfneiJKW6j15lx0EhDhxt27YNw/hUbfv+yWtf3q57NcABunv3zrPkAwMD+8zPz/9GUZRRfMkJmEFticofYb5g7UNO8lE7fMm2JEnTlmU9YNvi5dnsyO9nZnZsD9s6IpHIFxljF2uaJjic1ktp9HTw1yzT0E29ShXAbdtesG37cMbY1rCtmcsTrAY4QAerz1COJoriRaIoXm4Yhgj2NPIBUyRFKIV2CUV+WFiikB9vATMzoO5AFIhsWpaF8LxvJhKxX6xbt+6RLVu2+A+fCEAp8Xj8iFKpdHutbuEQDkNnZ2eXDkip1JWXQ0THzbNUbQb+ecbYey3L+nIAYvIhQqwBDtAh3pwgRNtrr70Gn3zyyZ8wxk4kawxfeKLFDGKOdo5BdJxk7bvBGta1aS6W56rFCOPtv2RZ5h2xWOK6eDzy6+np6Y6Xi0omkzcWCoWXEd82WcyU7t7MgsbC0BcPU7z9UAp5LfX7XtM0X8gYQ0EDfvWoBjhA9+jG0rKSyeR5hULhO6IoxvDlBmFRq3SYnVYRwAwAjXA8Svwgxr1UamCpAgl9JgiCqarqg9Vq9TZFkX6YzWa3jI+PL5VoWeX1nK8oytW6rsuNpcS8JAsRkBMVLMZw3Dw4LHwRY6xTFc1XWY39OR0H6N7f9xsEQXi5Y2IuRRPg99Xg4vCrXoo4gaUJ1wasZXLRLEah1E1nhuKyAGiE6jkVWciq1kVR+E/btr6eTCZ/Oz8//7hfmVrpv++++w48/vjjP1dV9RhYwZCVCuJ6iaIhECc3B9GQOg8ovBm9shV5eNvu0gAH6O7ar5akXbt27WETExO/sm0743YRUN07fOm7wQ8NkMI/hJrBosQFoFqM7FjMtMNnWA8VmwWAoQ2iH5yDUFMQhKpt299NpRLXyLL8p9Wi7xRF8XOWZb1DluUkAJoeNniQNLuwNnJHEacJAbuiKKUaE+DzNE17qNk4/PPu1AAH6O7cN69SX8EYe4fXxrtr5/b54nMilyegocgCd3QIWX0U+0vjkuWI3+nndof60TxkuTrgNscY26yq6p3pdPradnOAOCn2NzDGDkeSEB4ceGgEQElqiaL4RcuyLvGzx7xveDXAATq8e+NLsvXr16/ZsWMHykYd6msgJzUbQIrYXVh9RKUJUIYVS2WxYK0CfJx43SVrl+ZvPBDz8orvV/bGslMu+k5Y3kXTtE3G7GstS7h+eDj7YLt4LqLR6D9XKpUPQB4qcQXdBUCm9MdaavwLUGvXr654//BpgAN0+PYkEIlqPBZnaZp2g23bsp8B3UVN3WBHPwNsAN5wlcByBghTSjcsaMQvk7XttpYbWe78yLhcX7LwMTeV98LPAMZFl4FZ/3skEilWKtX7GbNvW7Nm8E64QII8WIxGo8dXKpUbFUXJQF7M7cXF4UEvCCl8PmMMQM2vHtMAB+ge21As5+CDD1Y3b958HWPs7CCWB38u1SxUFOV+SZJurHEeRzVNO4sxdpAEs9Sh1myMTGi0YN3uDfzsJczMzxrckROQhSxogPRi5ex43dIHN4kDnMjUm1UU+Q5dN+/YuHH09m3bto35kQF9wc8xPz//dUVRzsEbB95G8PDy6+Jxojy+yxi70K+MvH/4NMABOnx74luiTCbznIWFhXtlWY74PQQEwAFMkGQRiUSsarX6ZsbYdyBkNpvdODc39zLLsk5kjJ1W45pOA3BhnSLmulAoPGMtZDkTMLcboCEAQIys+Ge+BQj1ED4cMrojJpxoCQRY/x9j7Nb16zfeKAjm/du3b/fjSnhtjScaYIr6hYFkcTop8CVJkv5a0zTIyq8e0gAH6B7aTNdSPgZydxxIUaFWP8vMZrN1gLZte3skEjm1Wq02EuvL8Xj8OaVS6dU1Ep9XRKPRvSuVikyRFG4QpigM4qTwI5fXvo6BvxTiRnPj4ROL1QmI6g8VAmj8T0x79GZg2/Yj0Wj014oSuUlVxT+uJAkml8uNTk9PX2fb9nHuFG6v69hdOydU0hZF8R8ty7rUz1i8b/g0wAE6fHviSyKAQD6fv9uyrGfR4Z2fAcmv7KQkf5UxdtFy48GqnpmZOVqW5TcahnEisjMsy4oQSLujKlbDeia3hjuDDz8DpBcP6ewlCxt/awTO4eFhNjU15a4vaEqS9HvTNH+aTMZ/VygU7mlRv3+nqurndV0Xglg/IkEcPz9KYR3LGJtqUR7ePMQa4AAd4s1ZiWipVOrCfD7/TVVV6zSXXrgevMyjquqCZVmvMgwD3BKermQy+exyufxhy7IOt217P8ZYHB3dIO1pIB+NiPOCIkvImqboCVGUl8AaDyMkujQ8lOpRF3jYUbo2fhZF0bYsa4oxC4dz38rlcr+emppq6quWZfkEwzCuZ4ytoWxIH8urd3WY8QxJkl5tmiaSV/jVIxrgAN0jG4ll7L///pEtW7b8UhCE4wAm8Ks2O4RyxybvThUYBy4AQRB+Ho/H31gsFlsut5TJZDL5fP5YJGvYtn2KKIpRy7JEslbdQOWWh3zHFIFB4E6x2EG8IfjdfrgYRFE0dV1/0rbta3O53E+npqbuazLuVYyxtwwNDbHJyUlfIlDYHiJCZFn+38HBwRdMTk4+0/nvaxbeuVMa4ADdKc23Yd6hoaHnTE5O3i0IwoDbh7rcVM0A2jnUs0zTfCd4mP2KnU6n919YWED0x/8TBGG9IAgReoiQhQrZKWuQrFdYvJDFHTdM8cR+ZfLTv6FiDCJAFlRV/YllWT9UVfWBUqm0s3F8VVXP1zTtakTb+Zmb+rpkKMVisdPK5fJ/BjEuH6PzGuAA3fk9CEyCSCTyuWq1+n43qDUbvBlAOzzGT6bT6VMXFhb+0mw8r587ZaEOMQzjXYqiHKHrOlwgkhvwKBOReCgoQQbrQ1hcED5cr/LuqR2R8VMYoitxRxNFcbNlWVfH4/F7SqXSg4yxeqXcVCq1Jp/PA8BP8RtlQ28V0FWlUrEVRblc1/X/53ddvH84NMABOhz74FuKdevW7b1z584HJUlKYTBKxGjmg24G0ODwFEXxXyzL+jvfQu5hgMHBwb00TTulWCy+TlEUZMWpoigK8Ac3Ejq5mfiIm6Jdcnkdlx4ksPxJXjxMnAcI9LfTsqw7o9HodyqVCrI714yMjHxx165dF3idY0/tiPjfpYtiNBo9rFKprCoplN918P671wAH6N65M97OGLsCh4MAZbgNvITZNQNoURRhCb5A1/U/tFtV2Ww2PTMz89xaVtzLZFl+rWEYOVEUJSIMgqzwh2NtQR2w+V0T4plhBUPnBNSkU3wGoMbnDnCjYvlN6XR6IpvNnr1169ZRv/NjjxHFQfqwbZxdWm/BwaXfsXn/zmuAA3Tn98C3BCMjI0O7du36CYCUwq4o3RpW6HJXM4C2bfsWxthLkfTnW9AWBohGo/uiyEClUvkgY2wTY0whbmSAEX6GnzosF2Vbug9lKe2d2OgA4HjA0Dq88EF7WR9FpmA8vDnpuv6bZDL5ykKhMOGlP28TXg1wgA7v3niWTJKks03T/LEgCDK+pOTX9GJlNgFoWM8vN03zNs/CBNwwkUiMVCqVvxZF8Txd18+uxRAnBEEQ8eDZXRp5wNM3Hc7NSEf+aDfHBmTEPgBEITPauOlR/Uai0MEqHgyw2PFQKJfLqLLyesbYD5sugDcItQY4QId6e7wJpyjKlbquX0SVogEGyP7zEsLVBKAX0un0pvn5+VlvkrS3FeKqC4XCeaIoXmhZ1kZRFJVmYYTtlWhxdLJcKfnFTcoPq5kAG4ebuChCJSjZM5kMm5ubq7tRsO9IrBEE4QbTNM9ZjfXzOdqnAQ7Q7dPtqoycTCYPLhaLP7dteyNlzWFiqjrSLNKBIiQIVOhQ0Tkc/LRlWR9ZlYW0MEkymRwuFAonM8beLYriAZZlZSORiECyE0k/1uQ+VHS/XWA68h+7084dboslytQWxOpIU3qL2E2V8K2KouCto1lMdkfk5pN60wAHaG96Cm0rWZY/aRjGP8iyXE8dJquMqnY080FjYW4yIfzuMMCNRyKRM0ul0v+EdvGLgsH98ULLss4HIT4MWjx0AFiwXufn55d8vrQ2yirc07oAegTUzaJgOq0bihqhmoX0wK1Wqzgz+BfGWNuibzq99n6YnwN0F+/y8PDw2omJif8RBGHdYoVr82mp3V4OodwHTHj1Rm2/6elpaAWMdW/sFvXEYrH1pmmi/NMZoiieBC4SPHvIDw9dAHQBuHRoR5mMBMjuBxzaQjd+fcTt1h8BND1kITP5uxljC9Fo9IhKpfJYu+Xg47dHAxyg26PXVRk1mUy+ulgsXgOj1/2K20p8ML7YlLkHoZ1DL4SDnckY++WqLCTgSeD2KZVKZwmCcF7NF3u4YRgy4qrJR0xvGfQAIzCGGETmT28WQfmJA17i0nDEb+0kFNX/TlEi4KkyDOPdjLHL2zU/H7e9GuAA3V79tnv0Oxljp7hf3SlKAJafl3JK5MN0x/Datv1gLpc7bmpqapHFvnuvAcbYSxRFOVnX9VcwxjKRSESEpUwxyoghpquRSCkMUSLNVI+HzFPMfGY9ioOsaaeazGbDMI7E2WSzsfjn4dMAB+jw7YkniXK53IFzc3P/YxhGzA3K+IICaAicvRwSUluEbGmaZpqmeXEt2+3LngTpkkaqqh7CGDtX07TzBUHYX1EUSdM0ofFwzQ3KZImGeYmNPmg6KHalkOvpdPq4hYWFticahVlP3SobB+gu3blahh9oPD8lSVL9cJC+qMT8RlEZzQDa/QWHKkzT3JLL5U7wQp3ZjaqLxWIbNE17nmma56EkmPNQShAZE9ZEOnM/6MK6VnqIkNVMLg566DqHh1dalgWyK351mQY4QHfZhkHcjRs3jm7btu0BSZLWOKC6tAryp1KYXTMfKlmMzmGaLcvyvxmG8d4uVEvLIquqerBhGO+o8WSA/+NZoijG4MIlnTXygLQ8wSp0oBJi5E937zeRZlmWVU4mk8/N5/MPr4JIfIoANcABOkBlruJQiK64SlEU2W+UAUAI/liww0mSVJYk6fBqtRoYa90q6sTPVClJkl5omiY4LM5gjEUA1LCuYYHCTw0gJPCjIgCU5EN7QFasixfDj0yB9HXeAlBb8cOMsc8GMigfZNU0wAF61VQd2ERSNpu9bm5u7pxGfuSVzjAwMFCPF3ZSgxFP3LdXKpU6IJ/PnwRCfVEU/8qyLAVFYKAQEOzjgQbARq1Hd+wxhejRnsCixT9wb4ThqhWVvTWZTL4+LFmhYdBJN8jAAbobdskl49q1aw8bHx//laqqmSC4hF3grCcSibOKxeIdXaaStoibTCaHCoXC/ogFj8fjLyyVSgcIgiAt1jE060CNf4gdp8IB5G5AfDXSu8OQ5AIZHXk127ZPr9WJBN0pv7pEAxygu2SjSEyn4Ojf0+/NDgGbLQ/uDVh58Xj8N4lE4kxeLumZGkOVctM0j9d1/Q2MsRegCgwOZ2FBA5wLhUIdBOlQ0V1owEuoY7M9CupzURSvsizrbUGNx8dpvwY4QLdfx4HNsH79+g07duz4b0VRhglY/fqgnbRoq1KpoArHFYEJ24MDga96YWEBVWDgpwbZ/l6oAoOlYj8okxP/w70BizqItxw/qqQiAo6rZTaZTL6wRjj1f37G5H1XTwMcoFdP175nymQybygWi9/QdV1201z6HVgQhL+kUqkXLywsbPE7Vr/0HxgY2KdQKIAD5O2IBqlWqwNE2ARgxgEjDl47fdGBphMfX88stCyLZxZ2emM8zs8B2qOiOt1saGgoOTk5eRtKQuEVGq/VZEX7lU0UxS9YlvV+v+P0af+sLMtHGIbxaiTCKIoyIElSna8al18XlF+dUhilizca1vOxNRKlzj89/C6uD/pzgO6STV67du3ROBwURVEF/+/MzExQhPXg3TibMdYxUv4u2YKmYsKqnp+ffzlj7CJJkva1bVtuFofedNAAGsCKBgkW+MElSdJVVT2+XC7fG8DQfIg2a4ADdJsVHODwP4KFRgxsxMHg5RAKX1AiUKLMM1h2TrzuTsbYBvAEBShrvw+VZIy9iDF2IWPsGFmWhw3DqH/X8PYD3VPdSArVo8xPCtMjEitY4sSv4Q6rJNdFs0gRiuLAGIjYQXigbds/Y4zhQWL2+0aFff0coMO+Q4yxVCp1YLlc/lXtEA9f9Hq0AFFmNhOfMszcacuuQqf4giIF+GvNxuGfr0wDqqo+W9O0F+LhKsvySYZhSODuxj6OjIyw8fHx+n7idyftfIkW1U18RDSieCCTVe7VOqewP2ofi8VmBUE4tVQq/XFlq+K9VksDHKBXS9M+5kmlUh/I5/OfURSl/sUm66mVCA768lOEAfpKkpQfGBg4eGZmZrsP8XhXDxpIpVK5crn8XESARCKRM0zTPNCyrDpfNWKp8T8AlCxiWNoUc02RIORPpnhrAHgzH7eboc9VbBcp/R+vWfUf9yA6b9JBDXCA7qDyvUydy+VGp6amfhGNRg/Glw0JEPgie+WJoC8zAQFV3MDcuq53FSm/F311SRtULD8Nvn9Jkk4yTVMFX7WbfB/rAFjvqegCwBuXFyvaoR2tt4WbA/eQpmmPJ5PJY3jl73DfMRygw70/+IK+2bbtr+HVmMK3KH3YC9ua+0uPLyj5sGvcDJosyycahvHbkKug18U7Kx6Pn1EqlVDgdQRp5djndDpdB1RE6xBbIe23VypZKI7OHKjiDsYG8EciEaNarSKW+we9ruBuXh8H6BDv3oYNG2Lbt2+/SxTFY6gQKsSl1OJWRMcrM77wcG04HMg327YNEnt+UNSKItvUNplMHlIqlV5iWRb25OBYLJYql8t1qxr7Rm8+AFeiRm3m3nADtLvyuOv++T1j7DgY621aFh/WpwY4QPtUYDu7Z7PZY/P5/N26rqsEsFTw1M0B3UwG+J/xWovLiZ02JEk6xzTNm5v15Z+vrgZSqdSafD5/FKIsBEE4H+cOuq6nG/m9vbo43AUIyAIn/hVJkiqCIJzM36JWd49bmY0DdCvaWuW2kiRdaZrmRW5/s7vEkZdDQld9uiVyn0gksl2W5aOKxeKuVV4Sn64FDUSj0X01Tfsby7KQWn6IKIoROlPAMM1C7NCGKFGpyjvuGbLILcuyBUH4pmVZoFnlVwg1wAE6hJsCkfbee+91TzzxxEOMMdTVW/FFh0yurEM7Eon8bbVavXLFg/KOq62BtKIoH9V1/WKE6FEaeUCZpBOpVOrgfD5fL+XOr3BpgAN0uPZjSZrBwcHXLywsfNs0zToZz0oveq11vRKPp1KpE3l1jZVqtGP9jpck6Qemaa6jSilwewXAN61Ho9EzKpXKXR1bGZ94jxrgAB3Cm2P//fdPb9269fuGYbw4CPEocsMB668wxt4RxLh8jFXVgMwY+3dRFEHOVGfJ8xJi51HCaxljoFLlB8YeFbZazThAr5amW5gnl8udODU1dbssy6oXP+NyQ8MH6UrvNmRZfolhGJyUv4X9CEtTSZLOtG37plqxYHndunVs165dTRNVmsnugH1ZUZTn67p+f7P2/PPV1QAH6NXVt6fZUqnUVwqFQt1SIlY0Tx1304isLeejXw8MDJzNyx6tVJsd74c46Rtr5av+Gm9DQXBNO8UFbFEUP1GzyD/W8RVyAZ6mAQ7QIbshNmzY8KyxsbFbLMt6lqsc1YqldIVZWYqiXKTr+lUrHox37LgGYrHY+8vlMoq/1iu6eCHLWk5oV+LSw/F4/ORSqQTyLH6FRAMcoEOyESRGLBa7pFwufyaVSolBEL67Cpv+KZFIvHRubm5ryJbMxWlBA4lE4jmlUukG27Y3tdBt2aaDg4Nsbm7OsG37zYyxq4Mal4/jXwMcoP3rMLARNmzYkN25c+ftpmk+b+3atWxiYsK3j5GyxkRR/LZlWW8KTFg+UMc0IEnS10zTfCuAdXZ21rccuNfAqscYuzebzZ4+MzOz4HtQPkAgGuAAHYgagxlkcHDwdbOzs9/OZDLy3NzcUhHS5Uan8DliNqOUYPyO11/nFRa8GzgE+u9gJOWjdFgDxyiKco+iKKqbl4X4oinrEDHwzfzUxBeNEmr5fB5k/hdomvbDDq+PT+9ogAN0eG4FQVGUa5Heiy8aDgcbDvh2KykAmvzMBNLu7DGn0282bdr0oq1bt1bCs1wuiQ8NxAVBAJfKyRShg7Hc6d+UcdgsFI/uHSS9IMtQ1/VvMcbg6uBXCDTAAToEmwAR1q5de9jk5OSdlmUNE4cvANfLF4xAmng63EuKRCIoFHqBaZqIdeVX72jgNYqiXG3btkT7TiGVWCLuGy9kSujjkGfRvTabSqWezxOZwnGjcIAOxz6AJ+OzhmFcAnFgzYDEvRk4k9Xktpjp9RafORZ1MR6PH1AqlcZCslQuRjAa2EcQhAdlWU5QlRUq5OAGaC8gDYBGX1jQoijahmF8pkYX/g/BiMlH8aMBDtB+tBdQ32w2u6FYLP5a1/X6yTyAGT5B+BebgbTb2iZwxpeNfNCSJH3FNE2eORjQXoVsmCuRWYiQO3ogu6ut0L3UTOZUKgX/c92lhkvTtOloNPq8SqXCI36aKa/Nn3OAbrOCvQwfi8XOKZfL10kO2hIxP5G1LzcGhdERkDdkDs4rinKaruvg/eVXj2lAUZSjdF3/pSAIKfc5BJa5m3OI3a4e7ZwDwrqrAw/3arVqSpL0JtM0echdh+8ZDtAd3gDG4N2QwbtxLvkC8aVpZjmT2I1RHG46Ssuy7q6FToGqstr5ZXIJ2qAB1L26QxTFU+iecbu4yKpebl43XzRVEkfkhyzLPx8YGDhvcnKy0Aa5+ZAeNcAB2qOi2tUsm80eMjMzcx8KpdCJvCu5pO4XbHY1RnI4v88xxr5gGManm/Xnn3evBkRR/AdRFP+eMZZxv0VhRV4OCuneoQK1rkggLRaLHVcqlXBv8qtDGuAA3SHFuyzgH0iS9Cq8lYIYiSygxlfW5cTElwsJKUSsBFCXZXlBVdUDisViPQOBX72pgWQyOVytVu+tFQDeJ5vNsmKxWA/RdKVwL7twOq+gw0T8jthoXKZp3m2a5km9qbnuWBUH6A7u05o1a9ZPT0/fJUnSAc4Xoi6N13JGaAvydkR8IPIDX04H2G3G2BcZY+/v4PL41KungY+rqvoRwzAEt2vMS+X3xnvNHapXO1wGd/jx+Xz+z6u3FD6TWwMcoDt4P6iq+ipN074lCEIcYritGPzeih8abcFMhi9lsVgsJxKJo4vF4oMdXB6fepU0oKrqszVNuykWi+2PkDt6E6OH9nJiNJxZNDZFMdl3MsY4wdYq7WXjNBygO6R4xhgqpYCX+eSnPTEF4WmZgV7EIyuaTuNVVb1F07SzvPTlbXpGA19ijL0HqyH+FfcBoBeQJv9zQ1v4oI/llb87c59wgO6M3lkqlULyyB8ty0q4rWd3HKuXJAP3FxKHi5IkoSrGqzVNu75DS+PTdkYDpwmC8DNRFBVEA+GC68vrtTu3mnNoXWKMHcoYe9zrWLxdcBrgAB2cLlsaSRTF91iWdZkgCAiVetrVygEhWUuUsGKa5gPpdPqkhbv9WswAAAYLSURBVIWFmZYE4o27XQNrZFm+ybbt5xOZv5uno9niGg0Dyko0DMNijL2VMfbNZmPwz4PXAAfo4HXqaURJkn5l2/YLG0Oj3J29xEM7FTHqB4tOmu67UbvOkxC8Ua9p4G01WhdUa68/9OH6KpfLy67R7QZxJ7fQYaHDB/MrxtgJvaasblgPB+jO7NIAY+zP0Wh0eE+voS4LpqmEaIsvY7FYRELKUYwxfjjYVGs92eBZiqLcqev6XvTgbrbKxqosjYkr6G/b9k7btg9ijHGe6GYKDfhzDtABK9TjcFnG2KOiKNaTCxrSs8kaXoprbjZmLpdjMzMziPr4HmPs9c3a8897WgNfE0XxrcSv0SwSiHzPDhA/gwHPobydSyaTBxQKhcme1lwIF8cBujObkpFlebNt2+vIjUEZXe5kFS+HhOiP0Dpd16uyLJ9uGMY9nVkSnzUMGohEIi+pVqs/FQRB9uIia+TscIfdufzS8zW6WsTqT4Rhjf0kAwfozuw2jtlvZYydSgc5BLREHQmxvBzykKUUiURurFarr2GMLe907Mx6+ayrp4EBRVF+pOv6i9LpNFtYWN4rgYgPWNmUFu4GaIiMv0uS9F+maZ7OGOO8HKu3j/WZOECvssJd031QkqRLLcsSyFKGP5C+KG4S/uVExBdM1/V6aB1jjIfWdW4/wzQz3FzfHhgYkObn55eVCy6MRqPA7e7AwbNt2x+xLItzunRghzlAd0DpzpQI/r8bdeWIfwPgjC8LwBlgTe6O5USExRONRh8rl8svYIzt7Nxy+Mxh0UA8Hh/VNO0uwzAObCZTY8ks3HfkGnGMBc22bdxbf2g2Fv88eA1wgA5ep55GzOVyqampKRzo1GsQ4otCgOwknNSZ7Jr5oQVBMG3bfh9j7N88Tcwb9YsGPhCLxS4tl8vPiLN3K4B80ORSo9/J7cEYu5kxdh6nrO3MbcMBujN6r8+qKMoRuq5fwxg7mHx/+GJQiJ3rS7JHKZE9Zts2Egl2dXApfOqQaSAej68rlUog3D9lOdEowYncGvjfFfnxp9pbGSq2/FfIltc34nCA7vBWi6L4Tsuy3isIAmJY6y4O/PN4FXHQWCPlv9dje96sjzQgy/KJhmHcBnqO5ZbttqJdb2xbGGPfqPX95z5SWeiWygE6BFsiy/KphmF8Q5KkjaZpCmAhQ1ULOjAkljpXjUKk3/5EluV/Mwzj1yFYAhchvBo4jTF2sSRJp+PegsWMg0FKkAIgI8kJoZqoS+gcOk8zxt7CGPtpeJfVH5JxgA7PPh+C10lRFN8cjUZjpVJpyXfofGnqb5+xWOzPNXL279QOgL7PGHsiPOJzSUKsgf1lWb4I5x2apo2KoljnjaY3NselAQ5x8LdcryjK13Vd54eCIdhQDtAh2AS3CI5fGm6LE2RZ3scwjBiiMyKRyOZqtQpr+XeMsUdCJjYXpzs08FeiKJ5sWRZimg9jjK0BS50kSRO1OOffRqPROyqVCoCZxzuHZD85QIdkI5YRA0ktzQsThn8dXMJwaQBvaIu8pLyocLh2xiUNB+jQbg0XjGuAa6DfNcABut/vAL5+rgGugdBqgAN0aLeGC8Y1wDXQ7xrgAN3vdwBfP9cA10BoNcABOrRbwwXjGuAa6HcNcIDu9zuAr59rgGsgtBrgAB3areGCcQ1wDfS7BjhA9/sdwNfPNcA1EFoNcIAO7dZwwbgGuAb6XQMcoPv9DuDr5xrgGgitBjhAh3ZruGBcA1wD/a4BDtD9fgfw9XMNcA2EVgMcoEO7NVwwrgGugX7XAAfofr8D+Pq5BrgGQqsBDtCh3RouGNcA10C/a4ADdL/fAXz9XANcA6HVAAfo0G4NF4xrgGug3zXAAbrf7wC+fq4BroHQaoADdGi3hgvGNcA10O8a4ADd73cAXz/XANdAaDXAATq0W8MF4xrgGuh3DXCA7vc7gK+fa4BrILQa4AAd2q3hgnENcA30uwY4QPf7HcDXzzXANRBaDXCADu3WcMG4BrgG+l0DHKD7/Q7g6+ca4BoIrQY4QId2a7hgXANcA/2uAQ7Q/X4H8PVzDXANhFYD/x+8n75Vv7F/JQAAAABJRU5ErkJggg==;" parent="1" vertex="1">
          <mxGeometry x="489" y="216.87" width="30" height="30" as="geometry" />
        </mxCell>
        <mxCell id="XsaXqQfrhSqyZT8JbVa6-6" value="" style="rounded=0;whiteSpace=wrap;html=1;" parent="1" vertex="1">
          <mxGeometry x="194" y="256.87" width="350" height="50" as="geometry" />
        </mxCell>
        <mxCell id="4" value="" style="ellipse;whiteSpace=wrap;html=1;aspect=fixed;fillColor=#dae8fc;dashed=1;dashPattern=1 1;strokeColor=#6c8ebf;opacity=30;" parent="1" vertex="1">
          <mxGeometry x="352.13" y="80" width="303.75" height="303.75" as="geometry" />
        </mxCell>
        <mxCell id="XsaXqQfrhSqyZT8JbVa6-40" value="&lt;font style=&quot;color: rgb(0, 0, 0); font-family: &amp;quot;Fira Code&amp;quot;; text-wrap-mode: nowrap; font-size: 8px;&quot;&gt;&lt;font face=&quot;Source Code Pro&quot;&gt;{&lt;/font&gt;&lt;/font&gt;&lt;div style=&quot;font-family: &amp;quot;Fira Code&amp;quot;; text-wrap-mode: nowrap;&quot;&gt;&lt;font style=&quot;font-size: 8px; color: rgb(0, 0, 0);&quot;&gt;&lt;font face=&quot;Source Code Pro&quot;&gt;&amp;nbsp; BeaconMessage:&amp;nbsp;&lt;/font&gt;&lt;/font&gt;&lt;/div&gt;&lt;div style=&quot;font-family: &amp;quot;Fira Code&amp;quot;; text-wrap-mode: nowrap;&quot;&gt;&lt;font style=&quot;font-size: 8px; color: rgb(0, 0, 0);&quot;&gt;&lt;font face=&quot;Source Code Pro&quot;&gt;&lt;span style=&quot;white-space: pre;&quot;&gt;&#x9;&lt;/span&gt;rsu_0&lt;/font&gt;&lt;span style=&quot;font-family: &amp;quot;Source Code Pro&amp;quot;; background-color: transparent;&quot;&gt;,&lt;/span&gt;&lt;/font&gt;&lt;/div&gt;&lt;div style=&quot;font-family: &amp;quot;Fira Code&amp;quot;; text-wrap-mode: nowrap;&quot;&gt;&lt;font style=&quot;font-size: 8px; color: rgb(0, 0, 0);&quot;&gt;&lt;span style=&quot;font-family: &amp;quot;Source Code Pro&amp;quot;; background-color: transparent;&quot;&gt;&lt;span style=&quot;white-space: pre;&quot;&gt;&#x9;&lt;/span&gt;at Pos(...),&lt;/span&gt;&lt;/font&gt;&lt;/div&gt;&lt;div style=&quot;font-family: &amp;quot;Fira Code&amp;quot;; text-wrap-mode: nowrap;&quot;&gt;&lt;span style=&quot;background-color: transparent; font-family: &amp;quot;Source Code Pro&amp;quot;; color: light-dark(rgb(0, 0, 0), rgb(237, 237, 237)); font-size: 8px;&quot;&gt;&lt;span style=&quot;white-space: pre;&quot;&gt;&#x9;&lt;/span&gt;...&lt;/span&gt;&lt;/div&gt;&lt;div style=&quot;font-family: &amp;quot;Fira Code&amp;quot;; text-wrap-mode: nowrap;&quot;&gt;&lt;font style=&quot;font-size: 8px; color: rgb(0, 0, 0);&quot;&gt;&lt;span style=&quot;font-family: &amp;quot;Source Code Pro&amp;quot;; background-color: transparent;&quot;&gt;}&lt;/span&gt;&lt;/font&gt;&lt;/div&gt;" style="rounded=1;whiteSpace=wrap;html=1;align=left;fillColor=#dae8fc;strokeColor=#6c8ebf;" parent="1" vertex="1">
          <mxGeometry x="390" y="136.87" width="80" height="93.13" as="geometry" />
        </mxCell>
        <mxCell id="XsaXqQfrhSqyZT8JbVa6-10" value="" style="endArrow=none;dashed=1;html=1;rounded=0;entryX=1;entryY=0.5;entryDx=0;entryDy=0;exitX=0;exitY=0.5;exitDx=0;exitDy=0;strokeWidth=1;" parent="1" source="XsaXqQfrhSqyZT8JbVa6-6" target="XsaXqQfrhSqyZT8JbVa6-6" edge="1">
          <mxGeometry width="50" height="50" relative="1" as="geometry">
            <mxPoint x="194" y="290.2033333333333" as="sourcePoint" />
            <mxPoint x="339.83333333333326" y="206.87" as="targetPoint" />
          </mxGeometry>
        </mxCell>
        <mxCell id="XsaXqQfrhSqyZT8JbVa6-21" value="" style="rhombus;whiteSpace=wrap;html=1;" parent="1" vertex="1">
          <mxGeometry x="214.00153846153847" y="286.87" width="26.923076923076927" height="10" as="geometry" />
        </mxCell>
        <mxCell id="XsaXqQfrhSqyZT8JbVa6-22" value="" style="triangle;whiteSpace=wrap;html=1;fillColor=#000000;" parent="1" vertex="1">
          <mxGeometry x="227.46307692307693" y="286.87" width="13.461538461538463" height="10" as="geometry" />
        </mxCell>
        <mxCell id="XsaXqQfrhSqyZT8JbVa6-5" value="&lt;font style=&quot;font-size: 22px;&quot;&gt;&lt;b&gt;FOG&lt;/b&gt;&lt;/font&gt;" style="ellipse;shape=cloud;whiteSpace=wrap;html=1;" parent="1" vertex="1">
          <mxGeometry x="494" y="116.87" width="120" height="80" as="geometry" />
        </mxCell>
        <mxCell id="XsaXqQfrhSqyZT8JbVa6-3" value="" style="rhombus;whiteSpace=wrap;html=1;" parent="1" vertex="1">
          <mxGeometry x="355.53846153846155" y="286.87" width="26.923076923076927" height="10" as="geometry" />
        </mxCell>
        <mxCell id="XsaXqQfrhSqyZT8JbVa6-17" value="" style="triangle;whiteSpace=wrap;html=1;fillColor=#000000;" parent="1" vertex="1">
          <mxGeometry x="369" y="286.87" width="13.461538461538463" height="10" as="geometry" />
        </mxCell>
      </root>
    </mxGraphModel>
  </diagram>
</mxfile>
